<?xml version="1.0"?>
<svg xmlns="http://www.w3.org/2000/svg" xmlns:xlink="http://www.w3.org/1999/xlink" xmlns:svgjs="http://svgjs.com/svgjs" version="1.1" width="512" height="512" x="0" y="0" viewBox="0 0 512 512" style="enable-background:new 0 0 512 512" xml:space="preserve" class=""><g>
<path xmlns="http://www.w3.org/2000/svg" style="" d="M512,256c0,57.01-18.641,109.672-50.155,152.221C415.211,471.186,340.375,512,256,512  c-43.708,0-84.867-10.951-120.863-30.271c-11.588-6.207-22.632-13.291-33.061-21.159c-20.187-15.203-38.055-33.343-52.966-53.76  C18.223,364.513,0,312.383,0,256C0,114.615,114.615,0,256,0S512,114.615,512,256z" fill="#ff6348" data-original="#f9e15c" class=""/>
<g xmlns="http://www.w3.org/2000/svg">
	
		<rect x="334.201" y="-24.559" transform="matrix(-0.5547 -0.8321 0.8321 -0.5547 465.63 408.156)" style="" width="15.674" height="208.069" fill="#343b5e" data-original="#343b5e" class=""/>
	<circle style="" cx="428.596" cy="21.753" r="21.752" fill="#343b5e" data-original="#343b5e" class=""/>
	
		<rect x="64.886" y="71.633" transform="matrix(-0.8321 -0.5547 0.5547 -0.8321 265.3937 239.2902)" style="" width="208.069" height="15.674" fill="#343b5e" data-original="#343b5e" class=""/>
</g>
<g xmlns="http://www.w3.org/2000/svg">
	<path style="" d="M321.306,137.164c0,16.729-20.219,30.835-47.804,35.182c-5.726,0.909-11.776,1.39-18.024,1.39   c-36.352,0-65.829-16.374-65.829-36.571s29.477-36.571,65.829-36.571c6.248,0,12.298,0.481,18.024,1.39   C301.087,106.329,321.306,120.435,321.306,137.164z" fill="#e0e0e0" data-original="#e0e0e0" class=""/>
	<path style="" d="M321.306,137.164c0,16.729-20.219,30.835-47.804,35.182c-27.585-4.347-47.804-18.453-47.804-35.182   s20.219-30.835,47.804-35.182C301.087,106.329,321.306,120.435,321.306,137.164z" fill="#e0e0e0" data-original="#e0e0e0" class=""/>
</g>
<path xmlns="http://www.w3.org/2000/svg" style="" d="M461.845,154.321v253.9c-15.684,21.17-34.555,39.842-55.902,55.286  c-5.089,3.689-10.313,7.189-15.673,10.491c-4.044,2.508-8.171,4.89-12.361,7.158c-4.786,2.602-9.655,5.057-14.629,7.346  C330.658,503.578,294.316,512,256,512c-85.002,0-160.329-41.43-206.89-105.19V154.321c0-15.245,12.361-27.606,27.606-27.606h357.522  C449.484,126.715,461.845,139.076,461.845,154.321z" fill="#8e76cc" data-original="#8e76cc"/>
<path xmlns="http://www.w3.org/2000/svg" style="" d="M255.478,444.574c-41.708,0-84.002-1.927-125.71-5.726c-23.483-2.14-42.003-19.939-45.039-43.284  c-8.346-64.18-8.346-129.263,0-193.443c3.036-23.346,21.556-41.145,45.039-43.284c41.707-3.799,84.001-5.726,125.71-5.726  s84.002,1.927,125.71,5.726c23.483,2.14,42.003,19.939,45.039,43.284c8.346,64.18,8.346,129.263,0,193.443  c-3.036,23.345-21.556,41.144-45.039,43.284C339.48,442.647,297.186,444.574,255.478,444.574z" fill="#6b50a3" data-original="#6b50a3" class=""/>
<path xmlns="http://www.w3.org/2000/svg" style="" d="M415.859,394.219c-2.382,18.348-17.189,32.549-35.621,34.22c-5.632,0.512-11.274,0.993-16.906,1.432  c-77.542,6.113-155.073,5.632-232.615-1.432c-18.432-1.672-33.238-15.872-35.621-34.22c-8.276-63.582-8.276-127.164,0-190.746  c2.382-18.359,17.189-32.549,35.621-34.231c77.542-7.063,155.073-7.544,232.615-1.432c5.632,0.439,11.274,0.92,16.906,1.432  c18.432,1.682,33.238,15.872,35.621,34.231C424.135,267.055,424.135,330.637,415.859,394.219z" fill="#515878" data-original="#515878"/>
<path xmlns="http://www.w3.org/2000/svg" style="" d="M387.647,397.354c-1.87,14.879-11.389,27.105-24.315,32.517  c-77.542,6.113-155.073,5.632-232.615-1.432c-18.432-1.672-33.238-15.872-35.621-34.22c-8.276-63.582-8.276-127.164,0-190.746  c2.382-18.359,17.189-32.549,35.621-34.231c77.542-7.063,155.073-7.544,232.615-1.432c12.925,5.413,22.444,17.638,24.315,32.517  C395.922,266,395.922,331.682,387.647,397.354z" fill="#343b5e" data-original="#343b5e" class=""/>
<g xmlns="http://www.w3.org/2000/svg">
	<path style="" d="M136.882,473.621c0,2.884-0.616,5.632-1.745,8.108c-11.588-6.207-22.632-13.291-33.061-21.159   c3.636-4.169,8.986-6.802,14.952-6.802C127.99,453.768,136.882,462.66,136.882,473.621z" fill="#c43877" data-original="#c43877"/>
	<circle style="" cx="173.453" cy="473.621" r="12.539" fill="#c43877" data-original="#c43877"/>
	<circle style="" cx="264.014" cy="473.621" r="12.539" fill="#c43877" data-original="#c43877"/>
	<circle style="" cx="218.728" cy="473.621" r="12.539" fill="#c43877" data-original="#c43877"/>
</g>
<g xmlns="http://www.w3.org/2000/svg">
	<path style="" d="M313.992,492.429L313.992,492.429c-4.328,0-7.837-3.509-7.837-7.837v-21.943   c0-4.328,3.509-7.837,7.837-7.837l0,0c4.328,0,7.837,3.509,7.837,7.837v21.943C321.829,488.92,318.32,492.429,313.992,492.429z" fill="#343b5e" data-original="#343b5e" class=""/>
	<path style="" d="M405.943,462.649v0.857c-5.089,3.689-10.313,7.189-15.673,10.491v-11.348   c0-4.326,3.511-7.837,7.837-7.837c2.163,0,4.117,0.878,5.538,2.299C405.065,458.533,405.943,460.487,405.943,462.649z" fill="#343b5e" data-original="#343b5e" class=""/>
	<path style="" d="M377.908,462.649v18.505c-4.786,2.602-9.655,5.057-14.629,7.346   c-0.658-1.149-1.045-2.487-1.045-3.908v-21.943c0-4.326,3.5-7.837,7.837-7.837c2.163,0,4.127,0.878,5.538,2.299   C377.03,458.533,377.908,460.487,377.908,462.649z" fill="#343b5e" data-original="#343b5e" class=""/>
	<path style="" d="M342.03,492.429L342.03,492.429c-4.328,0-7.837-3.509-7.837-7.837v-21.943   c0-4.328,3.509-7.837,7.837-7.837l0,0c4.328,0,7.837,3.509,7.837,7.837v21.943C349.866,488.92,346.358,492.429,342.03,492.429z" fill="#343b5e" data-original="#343b5e" class=""/>
	<circle style="" cx="82.359" cy="21.753" r="21.752" fill="#343b5e" data-original="#343b5e" class=""/>
</g>
<g xmlns="http://www.w3.org/2000/svg">
</g>
<g xmlns="http://www.w3.org/2000/svg">
</g>
<g xmlns="http://www.w3.org/2000/svg">
</g>
<g xmlns="http://www.w3.org/2000/svg">
</g>
<g xmlns="http://www.w3.org/2000/svg">
</g>
<g xmlns="http://www.w3.org/2000/svg">
</g>
<g xmlns="http://www.w3.org/2000/svg">
</g>
<g xmlns="http://www.w3.org/2000/svg">
</g>
<g xmlns="http://www.w3.org/2000/svg">
</g>
<g xmlns="http://www.w3.org/2000/svg">
</g>
<g xmlns="http://www.w3.org/2000/svg">
</g>
<g xmlns="http://www.w3.org/2000/svg">
</g>
<g xmlns="http://www.w3.org/2000/svg">
</g>
<g xmlns="http://www.w3.org/2000/svg">
</g>
<g xmlns="http://www.w3.org/2000/svg">
</g>
</g></svg>
