<?xml version="1.0"?>
<svg xmlns="http://www.w3.org/2000/svg" xmlns:xlink="http://www.w3.org/1999/xlink" xmlns:svgjs="http://svgjs.com/svgjs" version="1.1" width="512" height="512" x="0" y="0" viewBox="0 0 512 512" style="enable-background:new 0 0 512 512" xml:space="preserve" class=""><g><g xmlns="http://www.w3.org/2000/svg"><path d="m512 256c0 71.76-29.53 136.62-77.09 183.11-15.94 15.575-72.319-9.329-91.877 1.685s-2.298 57.945-24.613 63.535c-19.98 5.01-40.89 7.67-62.42 7.67s-42.44-2.66-62.42-7.67c-33.97-8.51-34.341-49.925-61.401-70.495-8.49-6.44-47.469 12.715-55.089 5.275-47.56-46.49-77.09-111.35-77.09-183.11s29.53-136.62 77.09-183.11c7.66-7.48 15.78-14.48 24.32-20.96 26.5-20.1 57.03-35.16 90.16-43.75 20.59-5.34 42.18-8.18 64.43-8.18s43.84 2.84 64.43 8.18c43.81 11.36 83.07 34.03 114.48 64.71 47.56 46.49 77.09 111.35 77.09 183.11z" fill="#ff6348" data-original="#6daef7" style="" class=""/><g><g fill="#362a40"><path d="m431.769 189.417h-63.037v-110.736h63.037c8.161 0 14.777 6.616 14.777 14.777v81.182c0 8.161-6.616 14.777-14.777 14.777z" fill="#362a40" data-original="#362a40" style="" class=""/><path d="m75.761 102.624h67.508v53.872h-67.508c-5.692 0-10.307-4.615-10.307-10.307v-33.258c0-5.693 4.615-10.307 10.307-10.307z" fill="#362a40" data-original="#362a40" style="" class=""/><path d="m75.761 168.134h67.508v53.872h-67.508c-5.692 0-10.307-4.615-10.307-10.307v-33.258c0-5.692 4.615-10.307 10.307-10.307z" fill="#362a40" data-original="#362a40" style="" class=""/></g><path d="m434.91 64.3v374.81c-6.74 6.58-13.84 12.8-21.27 18.6-7.294 5.715-33.288-7.345-41.184-2.443-6.155 3.821 5.901 25.769-.586 29.063-16.83 8.56-34.73 15.31-53.45 20h-124.84c-18.72-4.69-36.62-11.44-53.45-20-7.405-3.76 6.333-36.075-.635-40.519-6.969-4.444-34.645 18.984-41.135 13.899-7.43-5.8-14.53-12.02-21.27-18.6v-374.81c0-30.99 25.13-56.12 56.12-56.12h245.58c30.99 0 56.12 25.13 56.12 56.12z" fill="#50405a" data-original="#50405a" style=""/><path d="m156.16 8.18c-26.75 0-49.12 18.71-54.75 43.75-.9 3.98-1.37 8.12-1.37 12.37v383.91c0 4.03.42 7.96 1.24 11.75-8.49-6.44-16.57-13.41-24.19-20.85v-374.81c0-30.99 25.13-56.12 56.12-56.12z" fill="#362a40" data-original="#362a40" style="" class=""/><path d="m414.91 64.3v383.91c0 3.29-.44 6.47-1.27 9.5-12.98 10.17-26.96 19.1-41.77 26.62h-231.74c-14.81-7.52-28.79-16.45-41.77-26.62-.83-3.03-1.27-6.21-1.27-9.5v-383.91c0-19.91 16.21-36.12 36.12-36.12h245.58c19.91 0 36.12 16.21 36.12 36.12z" fill="#78c378" data-original="#78c378" style="" class=""/><path d="m160.14 484.33h-20.01c-14.81-7.52-28.79-16.45-41.77-26.62-.83-3.03-1.27-6.21-1.27-9.5v-383.91c0-19.91 16.2-36.12 36.12-36.12h26.93c-19.91 0-36.11 16.21-36.11 36.12v383.91c0 19.92 16.2 36.12 36.11 36.12z" fill="#5fa258" data-original="#5fa258" style="" class=""/><path d="m256 76.021c-18.733 0-33.919-15.186-33.919-33.919v-33.92h67.838v33.919c0 18.733-15.186 33.92-33.919 33.92z" fill="#50405a" data-original="#50405a" style=""/><circle cx="256" cy="42.101" fill="#362a40" r="13.919" data-original="#362a40" style="" class=""/></g><g><path d="m152.202 162.235c7.885 10.853 33.055 14.59 41.364 25.09 5.606 7.09 6.613 16.013 7.942 24.755 1.206 7.92 2.677 15.681 8.079 21.817l-8.375 10.434c11.64 16.728 24.715 32.357 39.066 46.709 14.356 14.356 29.985 27.431 46.713 39.071l10.434-8.375c11.467 10.107 38.727 15.262 50.671 24.83 11.949 9.563 8.583 23.54 20.987 32.551l-23.951 12.262c-21.367 10.942-46.907 9.74-67.201-3.079-54.43-34.384-100.525-80.479-134.913-134.913-12.819-20.293-14.021-45.834-3.079-67.201z" fill="#e9eeff" data-original="#e9eeff" style=""/><path d="m201.508 212.08c1.206 7.92 2.677 15.681 8.079 21.817l-8.375 10.434-12.938-15.871z" fill="#d4daf8" data-original="#d4daf8" style=""/><path d="m225.171 349.074c5.168 3.587 10.416 7.068 15.743 10.434 20.293 12.819 45.834 14.021 67.2 3.079l23.951-12.262c-6.343-4.612-8.561-10.522-10.814-16.477 10.173 3.918 20.598 7.717 26.844 12.717 11.949 9.563 8.583 23.54 20.987 32.551l-23.951 12.262c-21.367 10.942-46.907 9.74-67.2-3.079-18.605-11.749-36.235-24.873-52.76-39.225z" fill="#d4daf8" data-original="#d4daf8" style=""/><path d="m297.425 321.735 16.631-13.353c5.142-4.135 12.408-4.342 17.78-.517l48.462 34.521c5.018 3.569 7.284 9.882 5.689 15.823-1.524 5.676-4.506 10.778-8.574 14.847-2.416 2.416-5.221 4.47-8.331 6.061-24.803-18.019-48.714-37.168-71.657-57.382z" fill="#50405a" data-original="#50405a" style=""/><path d="m348.144 319.482 32.154 22.904c5.018 3.569 7.284 9.881 5.689 15.823-1.524 5.676-4.506 10.778-8.574 14.847-2.416 2.416-5.221 4.47-8.331 6.061-12.717-9.237-25.196-18.774-37.432-28.598.265-.124.415-.194.415-.194 3.11-1.59 5.915-3.644 8.331-6.061 4.068-4.068 7.05-9.17 8.574-14.847.91-3.384.57-6.887-.826-9.935z" fill="#362a40" data-original="#362a40" style="" class=""/><path d="m173.109 145.33c5.137-1.383 10.553.128 14.232 3.808.574.574 1.109 1.206 1.59 1.882l21.079 29.596 13.442 18.866c3.825 5.371 3.618 12.638-.512 17.784l-13.354 16.631c-4.475-5.084-8.897-10.213-13.27-15.39-15.372-18.191-30.086-36.96-44.116-56.272 4.269-8.34 11.862-14.475 20.909-16.905z" fill="#50405a" data-original="#50405a" style=""/><path d="m210.011 180.616 13.442 18.866c3.825 5.371 3.618 12.638-.512 17.784l-13.354 16.631c-4.475-5.084-8.897-10.213-13.27-15.39l13.035-16.137c5.076-6.285 5.346-15.177.659-21.754z" fill="#362a40" data-original="#362a40" style="" class=""/></g><g fill="#5fa258"><path d="m315.253 274.578c-2.201-2.201-3.562-5.241-3.562-8.599 0-31.715-25.802-57.517-57.517-57.517-6.717 0-12.161-5.445-12.161-12.161s5.445-12.161 12.161-12.161c45.127 0 81.839 36.713 81.839 81.839 0 6.717-5.445 12.161-12.161 12.161-3.358 0-6.398-1.361-8.599-3.562z" fill="#5fa258" data-original="#5fa258" style="" class=""/><path d="m366.477 274.579c-2.201-2.201-3.562-5.241-3.562-8.599 0-29.046-11.311-56.353-31.85-76.892-20.538-20.538-47.846-31.849-76.892-31.849-6.717 0-12.161-5.445-12.161-12.161s5.445-12.161 12.161-12.161c35.543 0 68.958 13.841 94.09 38.973s38.973 58.548 38.973 94.09c0 6.717-5.445 12.161-12.161 12.161-3.357 0-6.397-1.361-8.598-3.562z" fill="#5fa258" data-original="#5fa258" style="" class=""/></g></g></g></svg>
