<?xml version="1.0"?>
<svg xmlns="http://www.w3.org/2000/svg" xmlns:xlink="http://www.w3.org/1999/xlink" xmlns:svgjs="http://svgjs.com/svgjs" version="1.1" width="512" height="512" x="0" y="0" viewBox="0 0 512 512" style="enable-background:new 0 0 512 512" xml:space="preserve" class=""><g><g xmlns="http://www.w3.org/2000/svg"><path d="m497.27 341.75c-.58 1.65-1.18 3.29-1.8 4.92-3.69 9.75-7.96 19.2-12.77 28.34v.01c-42.84 81.44-128.29 136.98-226.7 136.98-85.11 0-160.52-41.54-207.07-105.45-8.43-11.57 29.38-23.87 22.97-36.79-4.49-9.05-8.47-18.4-11.88-28.01z" fill="#ff6348" data-original="#343462" style="" class=""/><path d="m512 256c0 9.67-.54 19.22-1.59 28.61-2.2 19.81-6.66 38.96-13.14 57.14h-404.62c-9.54-26.81-14.73-55.67-14.73-85.75 0-24.22 3.36-47.65 9.65-69.85 10.84-38.32 30.38-72.98 56.35-101.72 9.72-10.75-57.59-20.67-46.19-29.65 43.56-34.31 98.52-54.78 158.27-54.78 141.38 0 256 114.62 256 256z" fill="#ff6348" data-original="#5731da" style="" class=""/><g><path d="m400.228 145.068h-99.653c-14.45 0-26.164 11.714-26.164 26.164v24.405c0 14.45 11.714 26.164 26.164 26.164h99.653c14.45 0 26.164-11.714 26.164-26.164v-24.405c0-14.45-11.714-26.164-26.164-26.164z" fill="#f7f3f7" data-original="#f7f3f7" style="" class=""/><path d="m341.854 221.808h-41.28c-14.45 0-26.16-11.72-26.16-26.17v-24.4c0-14.45 11.71-26.17 26.16-26.17h41.28c-14.45 0-26.17 11.72-26.17 26.17v24.4c0 14.45 11.72 26.17 26.17 26.17z" fill="#dcd3dc" data-original="#dcd3dc" style="" class=""/><g fill="#343462"><path d="m312.333 160.702c-6.569 0-11.894 5.325-11.894 11.894v41.392h23.788v-41.392c0-6.568-5.325-11.894-11.894-11.894z" fill="#ff6348" data-original="#343462" style="" class=""/><path d="m350.401 160.702c-6.569 0-11.894 5.325-11.894 11.894v41.392h23.788v-41.392c0-6.568-5.325-11.894-11.894-11.894z" fill="#ff6348" data-original="#343462" style="" class=""/><path d="m388.469 160.702c-6.569 0-11.894 5.325-11.894 11.894v41.392h23.788v-41.392c0-6.568-5.325-11.894-11.894-11.894z" fill="#ff6348" data-original="#343462" style="" class=""/></g><g fill="#1c1a36"><path d="m318.029 162.167c-3.69 2.01-6.2 5.93-6.2 10.43v41.4h-11.39v-41.4c0-6.56 5.33-11.89 11.89-11.89 2.06 0 4.01.53 5.7 1.46z" fill="#1c1a36" data-original="#1c1a36" style="" class=""/><path d="m356.099 162.167c-3.69 2.01-6.2 5.93-6.2 10.43v41.4h-11.39v-41.4c0-6.56 5.32-11.89 11.89-11.89 2.07 0 4.01.53 5.7 1.46z" fill="#1c1a36" data-original="#1c1a36" style="" class=""/><path d="m394.169 162.167c-3.69 2.01-6.2 5.93-6.2 10.43v41.4h-11.39v-41.4c0-6.56 5.32-11.89 11.89-11.89 2.06 0 4.01.53 5.7 1.46z" fill="#1c1a36" data-original="#1c1a36" style="" class=""/></g><path d="m512 302.76c0 1.07-.02 2.13-.05 3.19-.07 2.36-.22 4.69-.45 7-.23 2.36-.54 4.69-.93 7-3.53 21.23-13.51 40.28-27.87 55.07-18.85 19.44-45.27 31.53-74.5 31.53h-359.27c-30.03-41.23-48.05-91.78-48.9-146.49-.02-1.35 9.027-3.619 9.027-4.979 0-6.46-8.817-11.941-8.347-18.281 1.292-17.427 4.329-34.369 8.936-50.651 5.408-19.112 46.859-24.068 56.314-41.081 9.5-17.094-12.977-46.234.04-60.638 9.716-10.752 20.332-20.675 31.73-29.65 33.26 7.61 63.92 24.69 88.08 49.57l79.45 81.8 151.93 13.21c26.82 2.33 50.52 14.72 67.52 33.26 1.25 1.36 2.46 2.76 3.63 4.18 1.86 2.26 3.62 4.59 5.29 7 1.57 2.27 3.05 4.6 4.43 7 5.97 10.3 10.21 21.71 12.35 33.81 1.05 5.9 1.59 11.96 1.59 18.15z" fill="#da0079" data-original="#da0079" style="" class=""/><path d="m506.15 337.15c-5.02 14.32-13.09 27.2-23.45 37.86.01.01 0 .01 0 .01-18.86 19.45-45.27 31.53-74.5 31.53h-359.27c-8.43-11.57-15.91-23.87-22.32-36.79h401.8c25.29 0 48.57-8.62 67.06-23.09 3.77-2.93 7.33-6.12 10.68-9.52z" fill="#c30b76" data-original="#c30b76" style="" class=""/><path d="m174.561 186.15h-164.911c10.84-38.32 30.38-72.98 56.35-101.72 35.91 2.04 70.34 17.66 95.48 43.55l26.249 27.025c11.304 11.638 3.057 31.145-13.168 31.145z" fill="#1c1a36" data-original="#1c1a36" style="" class=""/><circle cx="309.002" cy="377.371" fill="#1c1a36" r="95.297" data-original="#1c1a36" style="" class=""/><circle cx="309.002" cy="377.371" fill="#f7f3f7" r="35.619" data-original="#f7f3f7" style="" class=""/><path d="m321.304 410.811c-3.83 1.41-7.98 2.18-12.3 2.18-19.68 0-35.62-15.95-35.62-35.62s15.94-35.62 35.62-35.62c4.32 0 8.47.77 12.3 2.18-13.61 5.01-23.31 18.1-23.31 33.44s9.7 28.43 23.31 33.44z" fill="#dcd3dc" data-original="#dcd3dc" style="" class=""/><path d="m309.002 448.631c-39.293 0-71.261-31.968-71.261-71.261s31.967-71.261 71.261-71.261 71.261 31.968 71.261 71.261-31.967 71.261-71.261 71.261zm0-128.521c-31.574 0-57.261 25.687-57.261 57.261s25.687 57.261 57.261 57.261 57.261-25.687 57.261-57.261-25.687-57.261-57.261-57.261z" fill="#a3e5fd" data-original="#a3e5fd" style="" class=""/><path d="m512 302.762c0 3.44-.17 6.84-.5 10.19h-51.84c-9.55 0-18.19-3.87-24.44-10.13-6.26-6.25-10.13-14.9-10.13-24.45 0-19.09 15.48-34.57 34.57-34.57h33.97c11.61 16.79 18.37 37.14 18.37 58.96z" fill="#f7ef44" data-original="#f7ef44" style="" class=""/><path d="m468.2 302.822c6.25 6.26 14.89 10.13 24.44 10.13h-32.98c-9.55 0-18.19-3.87-24.44-10.13-6.26-6.25-10.13-14.9-10.13-24.45 0-19.09 15.48-34.57 34.57-34.57h32.98c-19.09 0-34.57 15.48-34.57 34.57 0 9.55 3.87 18.2 10.13 24.45z" fill="#edcf3f" data-original="#edcf3f" style="" class=""/><path d="m511.95 305.952c-.07 2.36-.22 4.69-.45 7-.23 2.36-.54 4.69-.93 7h-50.91c-22.92 0-41.57-18.65-41.57-41.58 0-22.92 18.65-41.57 41.57-41.57h28.68c1.86 2.26 3.62 4.59 5.29 7 1.57 2.27 3.05 4.6 4.43 7h-38.4c-15.2 0-27.57 12.37-27.57 27.57 0 15.21 12.37 27.58 27.57 27.58z" fill="#a3e5fd" data-original="#a3e5fd" style="" class=""/><path d="m229.3 278.78-34.66 66.49c-2 3.84-5.98 6.26-10.31 6.26h-80.05c-6.42 0-11.63-5.21-11.63-11.63 0-6.43 5.21-11.63 11.63-11.63h73l26.84-51.5-22.2-16.71h-181.89c-.02-1.35-.03-2.7-.03-4.06 0-6.46.24-12.86.71-19.2h185.09c2.53 0 4.98.82 7 2.34l33.18 24.97c4.55 3.42 5.95 9.63 3.32 14.67z" fill="#a3e5fd" data-original="#a3e5fd" style="" class=""/><path d="m141.95 174.486c-3.839 0-7.677-1.464-10.606-4.393l-32.34-32.34c-5.858-5.858-5.858-15.355 0-21.213s15.355-5.858 21.213 0l32.34 32.34c5.858 5.858 5.858 15.355 0 21.213-2.93 2.928-6.769 4.393-10.607 4.393z" fill="#ff6348" data-original="#343462" style="" class=""/></g></g></g></svg>
