<?xml version="1.0"?>
<svg xmlns="http://www.w3.org/2000/svg" xmlns:xlink="http://www.w3.org/1999/xlink" xmlns:svgjs="http://svgjs.com/svgjs" version="1.1" width="512" height="512" x="0" y="0" viewBox="0 0 511 511" style="enable-background:new 0 0 512 512" xml:space="preserve" class=""><g><g xmlns="http://www.w3.org/2000/svg"><g><g><g><path d="m499.306 255.5c0 29.655-5.17 58.102-14.659 84.489-34.628 96.3-126.769 151.298-234.994 151.298-137.88 0-235.727-95.949-235.727-233.829 0-90.704 34.446-172.069 106.801-215.788 37.632-22.738 81.751-35.823 128.926-35.823 137.88 0 249.653 111.773 249.653 249.653z" fill="#ff6348" data-original="#86f1a7" style="" class=""/></g></g><g><path d="m355.712 375.813c-137.88 0-249.653-111.773-249.653-249.653 0-29.655 5.183-58.097 14.672-84.484-7.734 4.673-15.194 9.754-22.35 15.212l-94.07 245.05c8.857 47.083 30.932 89.501 62.224 123.253l93.014 63.207c27.95 10.821 58.334 16.755 90.104 16.755 108.224 0 200.353-68.869 234.981-165.169-37.631 22.739-81.747 35.829-128.922 35.829z" fill="#ff6348" data-original="#78d090" style="" class=""/></g></g><g><g><path d="m274.178 152.294 174.531 174.53-.014-174.631-87.195-87.221z" fill="#c10a54" data-original="#c10a54" style="" class=""/></g></g><g><g><path d="m159.734 445.226v42.692h168.2c5.515 0 9.986-4.471 9.986-9.986v-32.706z" fill="#d82e3d" data-original="#d82e3d" style="" class=""/></g></g><g><g><path d="m161.698 477.932v-32.706h-71.474v2.389c20.249 16.823 43.197 30.509 68.103 40.304h13.357c-5.515-.001-9.986-4.472-9.986-9.987z" fill="#c10a54" data-original="#c10a54" style="" class=""/></g></g><g><path d="m269.615 43.348-31.855-1.568c-30.316-1.493-55.714 22.685-55.714 53.038v359.571h152.092c15.165 0 27.459-12.294 27.459-27.459v-361.94s-48.421-12.939-91.982-21.642z" fill="#dd544f" data-original="#dd544f" style="" class=""/></g><g><path d="m184.929 426.93v-361.94l-26.399-21.642c-20.889 4.173-42.895 9.32-60.143 13.548-11.428 8.717-22.081 18.398-31.839 28.922v172.352l1.991 3.427-1.991 3.427v160.155c9.864 10.64 20.642 20.418 32.213 29.21h113.628c-15.166 0-27.46-12.294-27.46-27.459z" fill="#d82e3d" data-original="#d82e3d" style="" class=""/></g><g><g><path d="m76.788 75.392c-47.326 45.43-76.788 109.325-76.788 180.108 0 15.87 1.498 31.387 4.329 46.435l149.501-149.501z" fill="#d82e3d" data-original="#d82e3d" style="" class=""/></g></g><g><g><path d="m158.53 43.35c-.004.28-.021.558-.021.839 0 30.687 24.877 55.563 55.563 55.563 30.687 0 55.563-24.877 55.563-55.563 0-.281-.017-.559-.021-.839-22.071-4.409-42.896-7.732-55.542-7.732-12.645-.001-33.471 3.322-55.542 7.732z" fill="#c10a54" data-original="#c10a54" style="" class=""/></g></g><g><g><g><path d="m361.597 236.22v-6.501l-21.521 10.206-41.29-19.581-41.283 19.581-41.286-19.581-41.283 19.581-41.283-19.581-41.278 19.581-25.825-12.25v6.502l25.825 12.249 41.278-19.581 41.283 19.581 41.283-19.581 41.286 19.581 41.283-19.581 41.29 19.581z" fill="#ffffff" data-original="#ffffff" style="" class=""/></g></g><g><g><path d="m361.597 203.91v-6.501l-21.521 10.206-41.29-19.581-41.283 19.581-41.286-19.581-41.283 19.581-41.283-19.581-41.278 19.581-25.825-12.367v6.677l25.825 12.191 41.278-19.581 41.283 19.581 41.283-19.581 41.286 19.581 41.283-19.581 41.29 19.581z" fill="#ffffff" data-original="#ffffff" style="" class=""/></g></g><g><g><path d="m361.597 222.826v-13.003l-21.521 10.206-41.29-19.58-41.283 19.58-41.286-19.58-41.283 19.58-41.283-19.58-41.278 19.58-25.825-12.249v13.003l25.825 12.249 41.278-19.581 41.283 19.581 41.283-19.581 41.286 19.581 41.283-19.581 41.29 19.581z" fill="#ffffff" data-original="#ffffff" style="" class=""/></g></g></g><g><g><path d="m66.548 258.17h294.896v6.854h-294.896z" fill="#ffffff" data-original="#ffffff" style="" class=""/></g></g><g><g><path d="m66.548 171.031h294.896v6.854h-294.896z" fill="#ffffff" data-original="#ffffff" style="" class=""/></g></g><g><g><path d="m330.296 416.043 75.09-75.09c15.132-15.132 15.132-39.666 0-54.797l-28.622-28.622-102.49 102.488c-5.372 5.372-5.372 14.081 0 19.452l36.569 36.569c5.372 5.372 14.081 5.372 19.453 0z" fill="#c10a54" data-original="#c10a54" style="" class=""/></g></g><g><g><path d="m376.265 399.268 117.045-117.045c23.587-23.587 23.587-61.828 0-85.415l-44.615-44.615-159.753 159.753c-8.373 8.373-8.373 21.948 0 30.321l57.001 57.001c8.373 8.373 21.949 8.373 30.322 0z" fill="#d82e3d" data-original="#d82e3d" style="" class=""/></g></g></g></g></svg>
