<?xml version="1.0"?>
<svg xmlns="http://www.w3.org/2000/svg" xmlns:xlink="http://www.w3.org/1999/xlink" xmlns:svgjs="http://svgjs.com/svgjs" version="1.1" width="512" height="512" x="0" y="0" viewBox="0 0 512.001 512.001" style="enable-background:new 0 0 512 512" xml:space="preserve" class=""><g>
<circle xmlns="http://www.w3.org/2000/svg" style="" cx="256" cy="264.32" r="247.68" fill="#ff6348" data-original="#65669e" class=""/>
<path xmlns="http://www.w3.org/2000/svg" style="" d="M286.122,140.428H183.976H81.83l0,0c-24.448,67.755-31.768,140.503-21.309,211.77l12.84,79.406  c25.62,27.957,57.575,50.006,93.591,63.888V330.518c0-7.843,3.534-15.269,9.621-20.215c4.334-3.522,10.472-3.522,14.806,0  c6.087,4.946,9.622,12.372,9.622,20.215v175.344c17.69,4.011,36.096,6.139,55,6.139c8.716,0,17.324-0.456,25.808-1.334  l25.623-158.468C317.891,280.931,310.57,208.183,286.122,140.428L286.122,140.428z" fill="#61cbf8" data-original="#61cbf8" class=""/>
<g xmlns="http://www.w3.org/2000/svg">
	<path style="" d="M106.521,352.198c-10.459-71.267-3.139-144.015,21.309-211.77l0,0h-46l0,0   c-24.448,67.755-31.768,140.503-21.309,211.77l12.84,79.406c14.634,15.968,31.341,29.999,49.684,41.691L106.521,352.198z" fill="#5abdee" data-original="#5abdee"/>
	<path style="" d="M81.83,140.428l4.642-25.722c1.009-5.59,5.874-9.656,11.555-9.656h172.209   c5.501,0,10.213,3.938,11.19,9.351l4.697,26.027H81.83z" fill="#5abdee" data-original="#5abdee"/>
</g>
<path xmlns="http://www.w3.org/2000/svg" style="" d="M144.026,105.049h-46c-5.68,0-10.546,4.066-11.555,9.656l-4.642,25.722h46l4.642-25.722  C133.48,109.116,138.346,105.049,144.026,105.049z" fill="#4ba1db" data-original="#4ba1db"/>
<path xmlns="http://www.w3.org/2000/svg" style="" d="M448.882,129.03L448.882,129.03c-14.506-21.993-22.238-47.76-22.238-74.106V6.055  c0-3.344-2.711-6.055-6.055-6.055h-19.158c-3.725,0-6.745,3.02-6.745,6.745v17.059c0,42.056-26.856,79.415-66.72,92.815l0,0l0,0  c-39.864-13.4-66.72-50.759-66.72-92.815V6.745c0-3.725-3.02-6.745-6.745-6.745h-19.157c-3.345,0-6.056,2.711-6.056,6.056v48.868  c0,26.346-7.732,52.113-22.238,74.106l0,0c-7.85,11.901-9.408,26.882-4.175,40.144l0,0c15.971,40.478,24.171,83.603,24.171,127.118  v35.656c0,6.795,5.508,12.303,12.303,12.303h88.618h89.036c6.564,0,11.885-5.321,11.885-11.885v-36.074  c0-43.515,8.2-86.64,24.171-127.118l0,0C458.29,155.912,456.732,140.932,448.882,129.03z" fill="#fbcc68" data-original="#fbcc68" class=""/>
<path xmlns="http://www.w3.org/2000/svg" style="" d="M283.224,331.948v-35.656c0-43.515-8.2-86.64-24.171-127.118  c-5.233-13.262-3.674-28.243,4.176-40.144c13.369-20.27,6.55-43.746,5.398-67.926c-4.78-11.593-7.381-24.219-7.381-37.3V6.745  c0-3.725-3.02-6.745-6.745-6.745h-19.157c-3.344,0-6.056,2.711-6.056,6.056v48.868c0,26.346-7.732,52.113-22.238,74.106  c-7.85,11.901-9.408,26.882-4.176,40.144c15.971,40.479,24.171,83.603,24.171,127.118v35.656c0,6.795,5.508,12.303,12.303,12.303  h56.18C288.733,344.251,283.224,338.743,283.224,331.948z" fill="#fdbf49" data-original="#fdbf49" class=""/>
<path xmlns="http://www.w3.org/2000/svg" id="SVGCleanerId_0" style="" d="M327.965,116.619c39.864-13.4,66.72-50.759,66.72-92.815V6.745l0,0  c-42.078,20.674-91.362,20.674-133.44,0l0,0v17.059C261.245,65.86,288.102,103.219,327.965,116.619z" fill="#ffb229" data-original="#ffb229" class=""/>
<g xmlns="http://www.w3.org/2000/svg">
	<path id="SVGCleanerId_0_1_" style="" d="M327.965,116.619c39.864-13.4,66.72-50.759,66.72-92.815V6.745l0,0   c-42.078,20.674-91.362,20.674-133.44,0l0,0v17.059C261.245,65.86,288.102,103.219,327.965,116.619z" fill="#ffb229" data-original="#ffb229" class=""/>
</g>
<path xmlns="http://www.w3.org/2000/svg" style="" d="M347.423,20.98v2.824c0,33.07-16.611,63.227-43.089,81.123c7.195,4.863,15.113,8.828,23.631,11.692  c39.865-13.4,66.72-50.759,66.72-92.815V6.745C379.634,14.141,363.659,18.876,347.423,20.98z" fill="#fc9b00" data-original="#fc9b00" class=""/>
<path xmlns="http://www.w3.org/2000/svg" style="" d="M338.184,165.804h-20.435c-5.103,0-9.24-4.136-9.24-9.24s4.137-9.24,9.24-9.24h20.435  c5.103,0,9.24,4.136,9.24,9.24S343.286,165.804,338.184,165.804z" fill="#ffd892" data-original="#ffd892"/>
<g xmlns="http://www.w3.org/2000/svg">
</g>
<g xmlns="http://www.w3.org/2000/svg">
</g>
<g xmlns="http://www.w3.org/2000/svg">
</g>
<g xmlns="http://www.w3.org/2000/svg">
</g>
<g xmlns="http://www.w3.org/2000/svg">
</g>
<g xmlns="http://www.w3.org/2000/svg">
</g>
<g xmlns="http://www.w3.org/2000/svg">
</g>
<g xmlns="http://www.w3.org/2000/svg">
</g>
<g xmlns="http://www.w3.org/2000/svg">
</g>
<g xmlns="http://www.w3.org/2000/svg">
</g>
<g xmlns="http://www.w3.org/2000/svg">
</g>
<g xmlns="http://www.w3.org/2000/svg">
</g>
<g xmlns="http://www.w3.org/2000/svg">
</g>
<g xmlns="http://www.w3.org/2000/svg">
</g>
<g xmlns="http://www.w3.org/2000/svg">
</g>
</g></svg>
