<?xml version="1.0"?>
<svg xmlns="http://www.w3.org/2000/svg" xmlns:xlink="http://www.w3.org/1999/xlink" xmlns:svgjs="http://svgjs.com/svgjs" version="1.1" width="512" height="512" x="0" y="0" viewBox="0 0 511.99994 511" style="enable-background:new 0 0 512 512" xml:space="preserve" class=""><g><path xmlns="http://www.w3.org/2000/svg" d="m512 248.296875c0 136.855469-110.941406 247.796875-247.796875 247.796875s-247.796875-110.941406-247.796875-247.796875 110.941406-247.796875 247.796875-247.796875 247.796875 110.941406 247.796875 247.796875zm0 0" fill="#ff6348" data-original="#fcb858" style="" class=""/><path xmlns="http://www.w3.org/2000/svg" d="m19.699219 288.679688c19.285156 117.644531 121.402343 207.414062 244.503906 207.414062s225.21875-89.769531 244.503906-207.414062zm0 0" fill="#ff6348" data-original="#fd9250" style="" class=""/><path xmlns="http://www.w3.org/2000/svg" d="m368.308594 288.675781h-348.609375c19.285156 117.644531 121.402343 207.417969 244.503906 207.417969 25.355469 0 49.816406-3.816406 72.851563-10.894531-85.496094-39.148438-72.976563-183.171875 31.253906-196.523438zm0 0" fill="#ff6348" data-original="#fe6d48" style="" class=""/><path xmlns="http://www.w3.org/2000/svg" d="m288.699219 108.273438c-22.371094 27.597656-64.195313 69.085937-126.59375 91.21875 24.203125-4.671876 49.429687-7.835938 69.417969-15.78125 27.671874-11.003907 53.402343-26.941407 71.503906-39.515626 7.507812-5.21875 16.214844-7.773437 24.882812-7.726562-13.449218-9.648438-26.847656-19.277344-39.210937-28.195312zm0 0" fill="#1a6699" data-original="#1a6699" style=""/><path xmlns="http://www.w3.org/2000/svg" d="m295.582031 99.445312c7.410157-9.898437 21.503907-11.769531 31.257813-4.167968l30.507812 23.773437c6.558594 5.113281 7.84375 14.523438 2.894532 21.207031l-4.730469 6.382813c-8.785157-7.410156-19.847657-10.773437-30.738281-10.042969-12.738282-9.125-25.902344-18.578125-37.304688-26.816406 3.039062-3.699219 5.75-7.171875 8.113281-10.335938zm0 0" fill="#d3d6d0" data-original="#d3d6d0" style=""/><path xmlns="http://www.w3.org/2000/svg" d="m512 248.296875c0-24.179687-3.480469-47.546875-9.9375-69.640625-34.480469 23.355469-80.398438 21.046875-112.359375-5.917969l-34.03125-28.710937c-14.933594-12.597656-36.445313-13.59375-52.488281-2.449219-18.101563 12.578125-43.832032 28.515625-71.503906 39.515625-52.316407 20.800781-140.5625 8.824219-152.328126 76.898438 0 0 58.832032 19.144531 220.613282 19.144531 107.179687 0 176.535156-4.75 211.152344-7.953125.574218-6.886719.882812-13.851563.882812-20.886719zm0 0" fill="#4693c8" data-original="#4693c8" style=""/><path xmlns="http://www.w3.org/2000/svg" d="m511.117188 269.183594c-34.617188 3.203125-103.972657 7.953125-211.152344 7.953125-161.78125 0-220.609375-19.144531-220.609375-19.144531s-36.140625-8.191407-68.917969-26.472657l-8.769531 24.53125c-5.011719 14.015625 1.621093 29.546875 15.222656 35.597657 24.820313 11.039062 45.554687 16.351562 53.132813 18.195312 15.660156 4.5 81.847656 20.546875 229.085937 20.546875 97.5625 0 163.914063-4 201.355469-7.195313 5.46875-17.261718 9.09375-35.34375 10.652344-54.011718zm0 0" fill="#d3d6d0" data-original="#d3d6d0" style=""/><path xmlns="http://www.w3.org/2000/svg" d="m1.667969 256.050781 8.769531-24.53125c32.777344 18.28125 68.914062 26.472657 68.914062 26.472657s22.363282 7.273437 77.382813 12.851562c-4.546875 1.90625-7.925781 6.21875-8.34375 11.453125l-2.375 29.484375c-.382813 4.746094 1.757813 9.132812 5.28125 11.859375-47.144531-4.953125-72.375-11.242187-81.273437-13.796875-7.578126-1.84375-28.316407-7.15625-53.136719-18.195312-13.597657-6.050782-20.230469-21.582032-15.21875-35.597657zm0 0" fill="#52576b" data-original="#52576b" style="" class=""/><path xmlns="http://www.w3.org/2000/svg" d="m231.679688 181.09375c27.671874-11 53.398437-26.9375 71.503906-39.515625 16.042968-11.144531 37.554687-10.148437 52.488281 2.449219l12.78125 10.785156c-19.058594 19.070312-62.5625 53.929688-142.445313 76.707031-62.832031 17.917969-88.457031 13.9375-100.246093 35.59375-32.609375-4.628906-46.40625-9.121093-46.40625-9.121093 11.761719-68.070313 100.007812-56.097657 152.324219-76.898438zm0 0" fill="#2774a8" data-original="#2774a8" style="" class=""/><path xmlns="http://www.w3.org/2000/svg" d="m301.394531 163.859375c-6.625-3.828125-15.101562-1.558594-18.925781 5.070313-3.828125 6.628906-1.558594 15.101562 5.070312 18.929687 6.628907 3.824219 15.101563 1.554687 18.929688-5.070313 3.824219-6.628906 1.554688-15.105468-5.074219-18.929687zm0 0" fill="#1a6699" data-original="#1a6699" style=""/><path xmlns="http://www.w3.org/2000/svg" d="m260.96875 186.414062c-6.628906-3.824218-15.105469-1.554687-18.929688 5.074219-3.828124 6.625-1.554687 15.101563 5.070313 18.929688 6.628906 3.824219 15.101563 1.554687 18.929687-5.074219 3.828126-6.625 1.554688-15.101562-5.070312-18.929688zm0 0" fill="#1a6699" data-original="#1a6699" style=""/><path xmlns="http://www.w3.org/2000/svg" d="m218.117188 201.230469c-6.625-3.824219-15.101563-1.554688-18.925782 5.074219-3.828125 6.625-1.558594 15.101562 5.070313 18.929687 6.628906 3.824219 15.101562 1.554687 18.929687-5.074219 3.824219-6.625 1.554688-15.101562-5.074218-18.929687zm0 0" fill="#1a6699" data-original="#1a6699" style=""/><path xmlns="http://www.w3.org/2000/svg" d="m173.242188 212.09375c-6.628907-3.824219-15.101563-1.554688-18.929688 5.074219-3.824219 6.625-1.554688 15.101562 5.074219 18.925781 6.625 3.828125 15.101562 1.558594 18.925781-5.070312 3.828125-6.628907 1.558594-15.101563-5.070312-18.929688zm0 0" fill="#1a6699" data-original="#1a6699" style=""/><path xmlns="http://www.w3.org/2000/svg" d="m132.273438 204.179688c-26.40625 8.460937-47.570313 22.859374-52.921876 53.8125 0 0-36.136718-8.191407-68.914062-26.472657 0 0 20.769531-53.75 121.835938-27.339843zm0 0" fill="#d3d6d0" data-original="#d3d6d0" style=""/><path xmlns="http://www.w3.org/2000/svg" d="m287.75 180.414062-31.839844-38.238281c-3.101562-3.726562-2.597656-9.265625 1.132813-12.371093 3.726562-3.105469 9.265625-2.597657 12.371093 1.128906l31.835938 38.238281c3.105469 3.730469 2.597656 9.265625-1.128906 12.371094-3.726563 3.101562-9.261719 2.601562-12.371094-1.128907zm0 0" fill="#e1e5dc" data-original="#e1e5dc" style="" class=""/><path xmlns="http://www.w3.org/2000/svg" d="m245.851562 201.292969-21.273437-34.386719c-2.554687-4.125-1.277344-9.539062 2.847656-12.09375 4.125-2.550781 9.539063-1.277344 12.09375 2.851562l21.269531 34.386719c2.554688 4.125 1.277344 9.539063-2.847656 12.089844-4.152344 2.570313-9.558594 1.25-12.089844-2.847656zm0 0" fill="#e1e5dc" data-original="#e1e5dc" style="" class=""/><path xmlns="http://www.w3.org/2000/svg" d="m201.964844 213.972656-11.605469-27.078125c-1.910156-4.457031.15625-9.621093 4.613281-11.535156 4.460938-1.910156 9.625.15625 11.535156 4.613281l11.601563 27.078125c1.914063 4.457031-.152344 9.621094-4.613281 11.53125-4.472656 1.917969-9.625-.167969-11.53125-4.609375zm0 0" fill="#e1e5dc" data-original="#e1e5dc" style="" class=""/><path xmlns="http://www.w3.org/2000/svg" d="m157.300781 220.328125-4.308593-21.613281c-.945313-4.757813 2.144531-9.382813 6.902343-10.332032 4.753907-.945312 9.378907 2.140626 10.328125 6.898438l4.308594 21.613281c.949219 4.757813-2.140625 9.382813-6.898438 10.332031-4.746093.945313-9.382812-2.128906-10.332031-6.898437zm0 0" fill="#e1e5dc" data-original="#e1e5dc" style="" class=""/><path xmlns="http://www.w3.org/2000/svg" d="m258.238281 204.003906c-5.578125 35.089844-21.054687 91.929688-64.027343 142.296875 18.628906-16.148437 38.894531-31.503906 52.230468-48.378906 18.460938-23.363281 32.777344-50.03125 42.164063-69.972656 3.894531-8.273438 10.15625-14.839844 17.691406-19.132813-16.472656-1.628906-32.890625-3.269531-48.058594-4.8125zm0 0" fill="#2774a8" data-original="#2774a8" style="" class=""/><path xmlns="http://www.w3.org/2000/svg" d="m230.828125 290.519531c-9.175781 18.550781-21.09375 37.585938-36.617187 55.78125 18.273437-15.839843 38.101562-30.917969 51.441406-47.414062-6.3125 4.914062-15.660156-.703125-14.824219-8.367188zm0 0" fill="#1a6699" data-original="#1a6699" style=""/><path xmlns="http://www.w3.org/2000/svg" d="m259.785156 192.921875c1.464844-12.28125 12.738282-20.949219 24.984375-19.242187l38.308594 5.335937c8.238281 1.144531 14.054687 8.65625 13.109375 16.917969l-.902344 7.890625c-11.316406-2.023438-22.578125.597656-31.640625 6.671875-15.597656-1.53125-31.726562-3.136719-45.71875-4.570313.78125-4.722656 1.394531-9.085937 1.859375-13.003906zm0 0" fill="#e1e5dc" data-original="#e1e5dc" style="" class=""/><path xmlns="http://www.w3.org/2000/svg" d="m511.964844 245.566406c-.386719-35.871094-8.390625-69.914062-22.480469-100.585937-3.472656.816406-6.585937 3.148437-8.226563 6.738281l-2.121093 4.636719c-17.695313 38.675781-59.328125 60.472656-101.195313 52.976562l-43.828125-7.847656c-19.230469-3.445313-38.355469 6.449219-46.679687 24.121094-9.386719 19.945312-23.703125 46.613281-42.164063 69.976562-34.90625 44.171875-117.316406 77.921875-93.46875 142.757813 0 0 60.519531-12.835938 200.625-93.726563 75.21875-43.425781 127.363281-77.132812 159.539063-99.046875zm0 0" fill="#7ac9f4" data-original="#7ac9f4" style="" class=""/><path xmlns="http://www.w3.org/2000/svg" d="m427.269531 204.792969c-15.34375 5.796875-32.316406 7.585937-49.328125 4.539062l-43.828125-7.847656c-19.226562-3.445313-38.355469 6.449219-46.675781 24.121094-9.390625 19.945312-23.707031 46.613281-42.167969 69.976562-34.90625 44.171875-117.316406 77.921875-93.46875 142.757813 1.085938-.546875 85.652344-17 310.460938-160.117188-37.636719-.757812-57.753907-44.199218-34.992188-73.429687zm0 0" fill="#64b2e8" data-original="#64b2e8" style="" class=""/><path xmlns="http://www.w3.org/2000/svg" d="m502.832031 315.277344c5.96875-21.304688 9.167969-43.769532 9.167969-66.980469 0-.914063-.023438-1.820313-.035156-2.730469-32.175782 21.914063-84.320313 55.621094-159.539063 99.046875-140.105469 80.890625-200.625 93.726563-200.625 93.726563s-35.394531 10.972656-72.917969 11.53125l4.667969 25.628906c2.667969 14.644531 16.175781 24.777344 30.980469 23.21875 27.015625-2.851562 47.628906-8.617188 55.113281-10.8125 89.832031-22.34375 255.652344-122.320312 333.1875-172.628906zm0 0" fill="#e1e5dc" data-original="#e1e5dc" style="" class=""/><path xmlns="http://www.w3.org/2000/svg" d="m352.425781 344.613281c-140.105469 80.890625-200.625 93.726563-200.625 93.726563s-35.394531 10.972656-72.917969 11.53125l4.667969 25.628906c2.667969 14.644531 16.175781 24.777344 30.980469 23.21875 27.015625-2.851562 47.628906-8.617188 55.113281-10.8125 81.597657-20.292969 225.886719-104.640625 309.761719-157.636719 1.363281-.957031 2.726562-1.871093 4.082031-2.734375-24.558593-1.367187-37.066406-30.230468-21.554687-49.105468-28.925782 18.410156-65.210938 40.609374-109.507813 66.183593zm0 0" fill="#d3d6d0" data-original="#d3d6d0" style=""/><path xmlns="http://www.w3.org/2000/svg" d="m244.464844 460.480469c-3.105469-1.402344-5.792969-3.882813-7.398438-7.234375l-13.789062-28.75c-2.042969-4.261719-1.902344-8.980469-.042969-12.816406-49.050781 21.910156-71.433594 26.660156-71.433594 26.660156s-35.394531 10.972656-72.917969 11.53125l4.667969 25.628906c2.667969 14.644531 16.175781 24.777344 30.980469 23.21875 27.015625-2.851562 47.628906-8.617188 55.113281-10.8125 21.375-5.316406 47.054688-15.03125 74.820313-27.425781zm0 0" fill="#52576b" data-original="#52576b" style="" class=""/><path xmlns="http://www.w3.org/2000/svg" d="m245.269531 295.582031c18.460938-23.363281 32.777344-50.03125 42.164063-69.976562 8.324218-17.671875 27.453125-27.566407 46.679687-24.121094l16.460938 2.945313c-6.96875 26.046874-27.210938 77.988281-85.007813 137.65625-45.453125 46.933593-69.632812 56.300781-69.015625 80.949218-30.558593 12.292969-44.75 15.304688-44.75 15.304688-23.847656-64.835938 58.5625-98.585938 93.46875-142.757813zm0 0" fill="#4693c8" data-original="#4693c8" style=""/><path xmlns="http://www.w3.org/2000/svg" d="m310.765625 259.421875c0 7.652344-6.203125 13.859375-13.855469 13.859375s-13.855468-6.207031-13.855468-13.859375 6.203124-13.855469 13.855468-13.855469 13.855469 6.203125 13.855469 13.855469zm0 0" fill="#2774a8" data-original="#2774a8" style="" class=""/><path xmlns="http://www.w3.org/2000/svg" d="m287.035156 299.171875c0 7.652344-6.207031 13.859375-13.859375 13.859375-7.652343 0-13.855469-6.207031-13.855469-13.859375s6.203126-13.855469 13.855469-13.855469c7.652344 0 13.859375 6.203125 13.859375 13.855469zm0 0" fill="#2774a8" data-original="#2774a8" style="" class=""/><path xmlns="http://www.w3.org/2000/svg" d="m250.253906 289.488281c0-.15625.007813-.308593.011719-.464843-1.632813 2.207031-3.289063 4.398437-4.996094 6.558593-34.90625 44.171875-117.316406 77.921875-93.46875 142.757813 0 0 14.195313-3.011719 44.75-15.304688-.617187-24.648437 23.5625-34.015625 69.019531-80.949218 9.632813-9.945313 18.199219-19.667969 25.859376-29.101563-18.019532 10.667969-41.175782-2.265625-41.175782-23.496094zm0 0" fill="#2774a8" data-original="#2774a8" style="" class=""/><path xmlns="http://www.w3.org/2000/svg" d="m257.335938 333.429688c0 7.652343-6.203126 13.855468-13.859376 13.855468-7.652343 0-13.855468-6.203125-13.855468-13.855468 0-7.652344 6.203125-13.859376 13.855468-13.859376 7.65625 0 13.859376 6.207032 13.859376 13.859376zm0 0" fill="#1a6699" data-original="#1a6699" style=""/><path xmlns="http://www.w3.org/2000/svg" d="m223.902344 365.277344c0 7.652344-6.203125 13.855468-13.855469 13.855468s-13.855469-6.203124-13.855469-13.855468c0-7.65625 6.203125-13.859375 13.855469-13.859375s13.855469 6.203125 13.855469 13.859375zm0 0" fill="#1a6699" data-original="#1a6699" style=""/><path xmlns="http://www.w3.org/2000/svg" d="m170.722656 365.277344c-18.640625 20.527344-29.765625 43.582031-18.921875 73.0625 0 0-35.394531 10.972656-72.917969 11.53125 0 0-8.890624-56.9375 91.839844-84.59375zm0 0" fill="#e1e5dc" data-original="#e1e5dc" style="" class=""/><path xmlns="http://www.w3.org/2000/svg" d="m170.722656 365.277344c-27.257812 7.484375-46.476562 17.113281-60.027344 27.175781 13.671876.835937 26.261719 11.839844 26.539063 27.730469.050781 2.921875.308594 5.902344.792969 8.953125.820312 5.207031-.9375 10.246093-4.335938 13.835937 11.085938-2.460937 18.109375-4.632812 18.109375-4.632812-10.84375-29.480469.285157-52.535156 18.921875-73.0625zm0 0" fill="#d3d6d0" data-original="#d3d6d0" style=""/><path xmlns="http://www.w3.org/2000/svg" d="m132.273438 204.175781c-27.347657-7.148437-48.804688-8.417969-65.574219-6.480469 11.421875 7.5625 16.824219 23.382813 9.117187 37.285157-1.417968 2.554687-2.683594 5.265625-3.792968 8.148437-1.890626 4.921875-5.933594 8.40625-10.671876 9.816406 10.832032 3.414063 18 5.042969 18 5.042969 5.351563-30.953125 26.515626-45.355469 52.921876-53.8125zm0 0" fill="#c5c6c4" data-original="#c5c6c4" style=""/><path xmlns="http://www.w3.org/2000/svg" d="m293.488281 266.953125-46.691406-17.195313c-4.554687-1.675781-6.886719-6.726562-5.207031-11.277343 1.675781-4.550781 6.722656-6.882813 11.277344-5.207031l46.691406 17.195312c4.550781 1.675781 6.882812 6.726562 5.207031 11.277344-1.675781 4.554687-6.722656 6.886718-11.277344 5.207031zm0 0" fill="#e1e5dc" data-original="#e1e5dc" style="" class=""/><path xmlns="http://www.w3.org/2000/svg" d="m266.925781 247.914062c1.339844-3.636718 4.578125-6.019531 8.179688-6.449218l-22.238281-8.191406c-4.554688-1.675782-9.601563.65625-11.277344 5.207031-1.679688 4.550781.652344 9.601562 5.207031 11.28125l21.898437 8.0625c-2.253906-2.652344-3.058593-6.410157-1.769531-9.910157zm0 0" fill="#c5c6c4" data-original="#c5c6c4" style=""/><path xmlns="http://www.w3.org/2000/svg" d="m267.640625 305.988281-35.617187-19.144531c-4.273438-2.296875-5.875-7.621094-3.578126-11.894531 2.296876-4.273438 7.621094-5.875 11.894532-3.578125l35.617187 19.140625c4.273438 2.296875 5.875 7.625 3.578125 11.894531-2.3125 4.304688-7.652344 5.863281-11.894531 3.582031zm0 0" fill="#e1e5dc" data-original="#e1e5dc" style="" class=""/><path xmlns="http://www.w3.org/2000/svg" d="m250.417969 286.714844c1.847656-3.433594 5.488281-5.28125 9.140625-5.015625l-19.21875-10.332031c-4.273438-2.296876-9.597656-.691407-11.894532 3.582031-2.296874 4.273437-.695312 9.597656 3.578126 11.894531l19.355468 10.402344c-2.328125-2.90625-2.835937-7.042969-.960937-10.53125zm0 0" fill="#c5c6c4" data-original="#c5c6c4" style=""/><path xmlns="http://www.w3.org/2000/svg" d="m235.972656 338.910156-23.585937-17.648437c-3.886719-2.90625-4.679688-8.410157-1.773438-12.296875 2.90625-3.882813 8.410157-4.675782 12.296875-1.769532l23.585938 17.644532c3.886718 2.90625 4.679687 8.410156 1.773437 12.296875-2.917969 3.898437-8.425781 4.667969-12.296875 1.773437zm0 0" fill="#e1e5dc" data-original="#e1e5dc" style="" class=""/><path xmlns="http://www.w3.org/2000/svg" d="m227.695312 321.40625c2.164063-2.890625 5.59375-4.261719 8.945313-3.9375l-13.730469-10.273438c-3.886718-2.90625-9.390625-2.117187-12.296875 1.769532-2.90625 3.886718-2.113281 9.390625 1.773438 12.296875l14.546875 10.882812c-1.808594-3.316406-1.648438-7.515625.761718-10.738281zm0 0" fill="#c5c6c4" data-original="#c5c6c4" style=""/><path xmlns="http://www.w3.org/2000/svg" d="m200.472656 366.746094-14.535156-16.5625c-3.203125-3.648438-2.839844-9.199219.808594-12.398438 3.644531-3.195312 9.195312-2.835937 12.394531.808594l14.539063 16.566406c3.199218 3.644532 2.835937 9.195313-.8125 12.398438-3.636719 3.1875-9.1875 2.84375-12.394532-.8125zm0 0" fill="#e1e5dc" data-original="#e1e5dc" style="" class=""/><g xmlns="http://www.w3.org/2000/svg" fill="#c5c6c4"><path d="m197.539062 350.117188c2.917969-2.558594 6.929688-3.058594 10.277344-1.636719l-8.675781-9.886719c-3.199219-3.644531-8.75-4.007812-12.394531-.808594-3.648438 3.199219-4.007813 8.75-.808594 12.398438l8.621094 9.824218c-.9375-3.484374.085937-7.351562 2.980468-9.890624zm0 0" fill="#c5c6c4" data-original="#c5c6c4" style=""/><path d="m274.269531 150.644531c2.976563-2.484375 6.972657-2.925781 10.308594-1.5l-15.164063-18.210937c-3.105468-3.726563-8.644531-4.234375-12.371093-1.128906-3.730469 3.105468-4.234375 8.644531-1.128907 12.371093l14.929688 17.933594c-.625-3.425781.558594-7.078125 3.425781-9.464844zm0 0" fill="#c5c6c4" data-original="#c5c6c4" style=""/><path d="m240.570312 175.992188c3.320313-2.050782 7.394532-1.828126 10.425782.226562l-11.480469-18.554688c-2.550781-4.128906-7.964844-5.402343-12.089844-2.851562-4.125 2.554688-5.402343 7.96875-2.851562 12.09375l11.5625 18.6875c-.558594-3.683594 1.066406-7.515625 4.433593-9.601562zm0 0" fill="#c5c6c4" data-original="#c5c6c4" style=""/><path d="m203.546875 194.675781c3.320313-1.421875 6.976563-.894531 9.71875 1.058594l-6.757813-15.761719c-1.910156-4.457031-7.074218-6.523437-11.53125-4.613281-4.460937 1.914063-6.527343 7.078125-4.613281 11.535156l7.15625 16.699219c.09375-3.777344 2.328125-7.332031 6.027344-8.917969zm0 0" fill="#c5c6c4" data-original="#c5c6c4" style=""/><path d="m163.078125 204.457031c3.804687-.757812 7.527344.816407 9.71875 3.722657l-2.570313-12.898438c-.949218-4.757812-5.578124-7.847656-10.332031-6.898438-4.757812.949219-7.847656 5.574219-6.898437 10.332032l2.554687 12.820312c.929688-3.484375 3.75-6.324218 7.527344-7.078125zm0 0" fill="#c5c6c4" data-original="#c5c6c4" style=""/></g></g></svg>
