<?xml version="1.0"?>
<svg xmlns="http://www.w3.org/2000/svg" xmlns:xlink="http://www.w3.org/1999/xlink" xmlns:svgjs="http://svgjs.com/svgjs" version="1.1" width="512" height="512" x="0" y="0" viewBox="0 0 511.99998 511.99998" style="enable-background:new 0 0 512 512" xml:space="preserve" class=""><g><path xmlns="http://www.w3.org/2000/svg" d="m512 256c0 141.386719-114.613281 256-256 256s-256-114.613281-256-256 114.613281-256 256-256 256 114.613281 256 256zm0 0" fill="#ff6348" data-original="#1a2b63" style=""/><path xmlns="http://www.w3.org/2000/svg" d="m256.367188 36.78125c-72.199219 0-130.722657 58.527344-130.722657 130.722656 0 72.195313 58.523438 130.722656 130.722657 130.722656 72.195312 0 130.71875-58.527343 130.71875-130.722656 0-72.195312-58.523438-130.722656-130.71875-130.722656zm0 239.859375c-60.277344 0-109.140626-48.863281-109.140626-109.136719 0-60.277344 48.863282-109.136718 109.140626-109.136718 60.273437 0 109.136718 48.859374 109.136718 109.136718 0 60.273438-48.863281 109.136719-109.136718 109.136719zm0 0" fill="#83c5ff" data-original="#83c5ff" style="" class=""/><path xmlns="http://www.w3.org/2000/svg" d="m448.855469 433.75h-385.710938c-8.785156 0-15.90625-7.121094-15.90625-15.90625v-136.378906c0-70.863282 57.445313-128.308594 128.308594-128.308594h160.90625c70.863281 0 128.308594 57.445312 128.308594 128.308594v136.375c0 8.789062-7.121094 15.910156-15.90625 15.910156zm0 0" fill="#f7c677" data-original="#f7c677" style="" class=""/><path xmlns="http://www.w3.org/2000/svg" d="m331.667969 366.550781h-151.335938c-65.230469 0-119.492187-46.925781-130.886719-108.859375-1.441406 7.703125-2.207031 15.648438-2.207031 23.773438v136.378906c0 8.785156 7.121094 15.90625 15.90625 15.90625h385.707031c8.785157 0 15.910157-7.121094 15.910157-15.90625v-136.378906c0-8.125-.765625-16.070313-2.210938-23.773438-11.390625 61.933594-65.652343 108.859375-130.882812 108.859375zm0 0" fill="#e8a25d" data-original="#e8a25d" style=""/><path xmlns="http://www.w3.org/2000/svg" d="m446.960938 216.246094c-15.933594 101.175781-121.484376 179.34375-249.324219 179.34375-56.398438 0-108.457031-15.214844-150.398438-40.902344v63.15625c0 8.785156 7.121094 15.90625 15.90625 15.90625h385.707031c8.785157 0 15.910157-7.121094 15.910157-15.90625v-136.378906c0-23.8125-6.496094-46.105469-17.800781-65.21875zm0 0" fill="#f9b75f" data-original="#f9b75f" style=""/><path xmlns="http://www.w3.org/2000/svg" d="m462.554688 257.691406c-11.394532 61.933594-65.65625 108.859375-130.886719 108.859375h-5.273438c-37.660156 18.433594-81.695312 29.039063-128.757812 29.039063-56.394531 0-108.457031-15.214844-150.398438-40.902344v63.15625c0 8.785156 7.125 15.90625 15.910157 15.90625h385.707031c8.785156 0 15.90625-7.121094 15.90625-15.90625v-136.378906c0-8.125-.765625-16.070313-2.207031-23.773438zm0 0" fill="#dd924e" data-original="#dd924e" style=""/><path xmlns="http://www.w3.org/2000/svg" d="m165.378906 429.90625v-276.347656c-16.625 1.300781-32.359375 5.777344-46.597656 12.816406v263.53125c0 1.335938.203125 2.628906.582031 3.84375h45.429688c.378906-1.214844.585937-2.507812.585937-3.84375zm0 0" fill="#bd8150" data-original="#bd8150" style="" class=""/><path xmlns="http://www.w3.org/2000/svg" d="m393.21875 429.90625v-263.53125c-14.238281-7.035156-29.972656-11.515625-46.597656-12.816406v276.347656c0 1.335938.207031 2.628906.582031 3.84375h45.433594c.378906-1.214844.582031-2.507812.582031-3.84375zm0 0" fill="#bd8150" data-original="#bd8150" style="" class=""/><path xmlns="http://www.w3.org/2000/svg" d="m165.378906 393.902344c-16.058594-1.683594-31.636718-4.613282-46.597656-8.65625v44.660156c0 1.335938.203125 2.628906.582031 3.84375h45.429688c.378906-1.214844.585937-2.507812.585937-3.84375zm0 0" fill="#b77d51" data-original="#b77d51" style=""/><path xmlns="http://www.w3.org/2000/svg" d="m393.21875 351.488281c-14.214844 7.429688-29.941406 12.367188-46.597656 14.230469v64.1875c0 1.335938.207031 2.628906.582031 3.84375h45.433594c.378906-1.214844.582031-2.507812.582031-3.84375zm0 0" fill="#b77d51" data-original="#b77d51" style=""/><path xmlns="http://www.w3.org/2000/svg" d="m142.078125 265.394531c-12.8125 0-23.296875-10.484375-23.296875-23.300781v-101.285156c0-7.40625 6.058594-13.46875 13.46875-13.46875h19.660156c7.40625 0 13.46875 6.0625 13.46875 13.46875v101.285156c0 12.816406-10.484375 23.300781-23.300781 23.300781zm0 0" fill="#ffe194" data-original="#ffe194" style=""/><path xmlns="http://www.w3.org/2000/svg" d="m154.15625 127.546875v101.078125c0 12.816406-10.484375 23.300781-23.300781 23.300781-3.957031 0-7.691407-1.007812-10.964844-2.765625 3.007813 9.386719 11.835937 16.234375 22.1875 16.234375 12.816406 0 23.300781-10.484375 23.300781-23.300781v-101.285156c0-6.640625-4.878906-12.183594-11.222656-13.261719zm0 0" fill="#fcd57e" data-original="#fcd57e" style="" class=""/><path xmlns="http://www.w3.org/2000/svg" d="m369.921875 265.394531c-12.816406 0-23.300781-10.484375-23.300781-23.300781v-101.285156c0-7.40625 6.0625-13.46875 13.46875-13.46875h19.660156c7.410156 0 13.46875 6.0625 13.46875 13.46875v101.285156c0 12.816406-10.484375 23.300781-23.296875 23.300781zm0 0" fill="#ffe194" data-original="#ffe194" style=""/><path xmlns="http://www.w3.org/2000/svg" d="m381.996094 127.546875v101.078125c0 12.816406-10.484375 23.300781-23.300782 23.300781-3.957031 0-7.691406-1.007812-10.964843-2.765625 3.011719 9.386719 11.835937 16.234375 22.191406 16.234375 12.8125 0 23.296875-10.484375 23.296875-23.300781v-101.285156c0-6.640625-4.875-12.183594-11.222656-13.261719zm0 0" fill="#fcd57e" data-original="#fcd57e" style="" class=""/><path xmlns="http://www.w3.org/2000/svg" d="m273.957031 412.84375h-37.035156c-7.410156 0-13.46875-6.0625-13.46875-13.46875v-65.515625c0-7.40625 6.058594-13.46875 13.46875-13.46875h37.035156c7.410157 0 13.46875 6.058594 13.46875 13.46875v65.515625c0 7.40625-6.058593 13.46875-13.46875 13.46875zm0 0" fill="#fcd57e" data-original="#fcd57e" style="" class=""/><path xmlns="http://www.w3.org/2000/svg" d="m236.921875 412.839844h37.035156c7.410157 0 13.46875-6.058594 13.46875-13.46875v-17.339844c-20.203125 6.335938-41.652343 10.613281-63.972656 12.480469v4.859375c0 7.410156 6.058594 13.46875 13.46875 13.46875zm0 0" fill="#febf3f" data-original="#febf3f" style="" class=""/><path xmlns="http://www.w3.org/2000/svg" d="m287.425781 366.617188v-32.757813c0-7.40625-6.058593-13.46875-13.46875-13.46875h-37.035156c-7.410156 0-13.46875 6.058594-13.46875 13.46875v32.757813zm0 0" fill="#ffe194" data-original="#ffe194" style=""/></g></svg>
