<?xml version="1.0"?>
<svg xmlns="http://www.w3.org/2000/svg" xmlns:xlink="http://www.w3.org/1999/xlink" xmlns:svgjs="http://svgjs.com/svgjs" version="1.1" width="512" height="512" x="0" y="0" viewBox="0 0 512 512" style="enable-background:new 0 0 512 512" xml:space="preserve" class=""><g><path xmlns="http://www.w3.org/2000/svg" d="m467.691406 275.691406v-64c0-24.429687-19.875-44.308594-44.308594-44.308594h-21.011718l25.3125-84.371093c1.160156-3.863281.6875-8.039063-1.308594-11.546875-1.996094-3.507813-5.339844-6.046875-9.253906-7.023438l-67.582032-16.894531v-32.777344c0-8.15625-6.613281-14.769531-14.769531-14.769531h-256c-8.15625 0-14.769531 6.613281-14.769531 14.769531v152.613281h-19.691406c-24.433594 0-44.308594 19.878907-44.308594 44.308594v256c0 24.433594 19.875 44.308594 44.308594 44.308594h379.074218c24.433594 0 44.308594-19.875 44.308594-44.308594v-64c24.433594 0 44.308594-19.875 44.308594-44.308594v-39.382812c0-24.429688-19.875-44.308594-44.308594-44.308594zm-72.746094-186.347656-21.933593 73.117188h-23.472657v-84.46875zm-301.40625-59.804688h226.460938v137.84375h-226.460938zm344.613282 438.152344c0 8.144532-6.625 14.769532-14.769532 14.769532h-379.074218c-8.144532 0-14.769532-6.625-14.769532-14.769532v-256c0-8.144531 6.625-14.769531 14.769532-14.769531h379.074218c8.144532 0 14.769532 6.625 14.769532 14.769531v64h-54.152344c-24.429688 0-44.308594 19.878906-44.308594 44.308594v39.382812c0 24.433594 19.878906 44.308594 44.308594 44.308594h54.152344zm44.308594-108.308594c0 8.144532-6.625 14.769532-14.769532 14.769532h-83.691406c-8.144531 0-14.769531-6.625-14.769531-14.769532v-39.382812c0-8.144531 6.625-14.769531 14.769531-14.769531h83.691406c8.144532 0 14.769532 6.625 14.769532 14.769531zm0 0" fill="#505050" data-original="#000000" style="" class=""/><path xmlns="http://www.w3.org/2000/svg" d="m433.230469 324.921875h-4.921875c-8.15625 0-14.769532 6.613281-14.769532 14.769531s6.613282 14.769532 14.769532 14.769532h4.921875c8.15625 0 14.769531-6.613282 14.769531-14.769532s-6.613281-14.769531-14.769531-14.769531zm0 0" fill="#505050" data-original="#000000" style="" class=""/><path xmlns="http://www.w3.org/2000/svg" d="m285.539062 78.769531h-14.769531c-2.714843 0-4.921875-2.207031-4.921875-4.921875v-9.847656c0-8.15625-6.613281-14.769531-14.769531-14.769531s-14.769531 6.613281-14.769531 14.769531v9.847656c0 19 15.457031 34.460938 34.460937 34.460938h14.769531c8.15625 0 14.769532-6.613282 14.769532-14.769532s-6.613282-14.769531-14.769532-14.769531zm0 0" fill="#505050" data-original="#000000" style="" class=""/><path xmlns="http://www.w3.org/2000/svg" d="m162.460938 49.230469c-8.15625 0-14.769532 6.613281-14.769532 14.769531v9.847656c0 2.714844-2.207031 4.921875-4.921875 4.921875h-14.769531c-8.15625 0-14.769531 6.613281-14.769531 14.769531s6.613281 14.769532 14.769531 14.769532h14.769531c19 0 34.460938-15.460938 34.460938-34.460938v-9.847656c0-8.15625-6.613281-14.769531-14.769531-14.769531zm0 0" fill="#505050" data-original="#000000" style="" class=""/></g></svg>
