<?xml version="1.0"?>
<svg xmlns="http://www.w3.org/2000/svg" xmlns:xlink="http://www.w3.org/1999/xlink" xmlns:svgjs="http://svgjs.com/svgjs" version="1.1" width="512" height="512" x="0" y="0" viewBox="0 0 512 512" style="enable-background:new 0 0 512 512" xml:space="preserve"><g><g xmlns="http://www.w3.org/2000/svg"><path d="m512 312.709-65.979-131.959h-84.646v-60.25h-46.022c-7.488-67.682-65.021-120.5-134.665-120.5s-127.177 52.818-134.666 120.5h-46.022v331.25h46.693c6.972 34.331 37.387 60.25 73.745 60.25s66.772-25.919 73.745-60.25h123.636c6.972 34.331 37.387 60.25 73.745 60.25s66.772-25.919 73.745-60.25h46.691zm-84.521-101.959 45.25 90.5h-111.354v-90.5zm-246.791-180.75c58.173 0 105.5 47.327 105.5 105.5s-47.328 105.5-105.5 105.5-105.5-47.327-105.5-105.5 47.327-105.5 105.5-105.5zm-133.995 391.75h-16.693v-271.25h16.022c7.489 67.682 65.021 120.5 134.666 120.5s127.177-52.818 134.665-120.5h16.022v241.136c-6.582 8.759-11.299 18.995-13.557 30.114h-123.636c-6.972-34.331-37.387-60.25-73.745-60.25s-66.772 25.919-73.744 60.25zm73.745 60.25c-24.951 0-45.25-20.299-45.25-45.25s20.299-45.25 45.25-45.25 45.25 20.299 45.25 45.25-20.299 45.25-45.25 45.25zm271.124 0c-24.951 0-45.25-20.299-45.25-45.25s20.299-45.25 45.25-45.25 45.25 20.299 45.25 45.25-20.298 45.25-45.25 45.25zm73.745-60.25c-6.972-34.331-37.387-60.25-73.745-60.25-10.733 0-20.94 2.275-30.188 6.342v-36.592h120.626v90.5z" fill="#505050" data-original="#000000" style=""/><path d="m255.938 120.5h-60.25v-60.25h-30v90.25h90.25z" fill="#505050" data-original="#000000" style=""/><path d="m105.438 421.75h30v30h-30z" fill="#505050" data-original="#000000" style=""/><path d="m376.562 421.75h30v30h-30z" fill="#505050" data-original="#000000" style=""/></g></g></svg>
