<?xml version="1.0"?>
<svg xmlns="http://www.w3.org/2000/svg" xmlns:xlink="http://www.w3.org/1999/xlink" xmlns:svgjs="http://svgjs.com/svgjs" version="1.1" width="512" height="512" x="0" y="0" viewBox="0 0 512 512" style="enable-background:new 0 0 512 512" xml:space="preserve" class=""><g>
<circle xmlns="http://www.w3.org/2000/svg" style="" cx="256" cy="256" r="256" fill="#ff6348" data-original="#3b465c" class=""/>
<g xmlns="http://www.w3.org/2000/svg">
	<path style="" d="M265.983,232.205c29.786-29.786,29.79-78.082,0-107.872c-29.786-29.786-78.082-29.781-107.867,0.005   s-29.786,78.077,0,107.863C187.906,261.99,236.197,261.99,265.983,232.205z M215.741,181.963c10.201-10.201,26.741-10.201,36.942,0   c10.201,10.201,10.201,26.741,0,36.942c-10.201,10.201-26.741,10.201-36.942,0C205.54,208.705,205.54,192.164,215.741,181.963z" fill="#fdbc69" data-original="#fdbc69" class=""/>
	
		<rect x="116.828" y="110.218" transform="matrix(0.7071 -0.7071 0.7071 0.7071 -45.2819 157.0896)" style="" width="100.309" height="45.973" fill="#fdbc69" data-original="#fdbc69" class=""/>
	<polygon style="" points="140.753,155 34.363,48.61 45.943,21.032 54.682,0.215 82.388,0.585 188.778,106.975  " fill="#fdbc69" data-original="#fdbc69" class=""/>
</g>
<g xmlns="http://www.w3.org/2000/svg">
	<path style="" d="M166.243,141.331L45.943,21.032l8.738-20.816L181.02,126.554c4.08,4.08,4.08,10.697,0,14.777l0,0   C176.94,145.412,170.324,145.412,166.243,141.331z" fill="#ea9434" data-original="#ea9434"/>
	
		<rect x="111.965" y="105.359" transform="matrix(0.7071 -0.7071 0.7071 0.7071 -36.5618 136.0317)" style="" width="67.918" height="13.582" fill="#ea9434" data-original="#ea9434"/>
	<path style="" d="M210.815,177.037c12.901-12.901,33.893-12.901,46.794,0c12.9,12.901,12.901,33.893,0,46.794   c-12.901,12.9-33.893,12.901-46.794,0S197.914,189.938,210.815,177.037z M247.758,213.979c7.469-7.469,7.469-19.622,0-27.091   c-7.469-7.469-19.622-7.469-27.091,0c-7.469,7.469-7.469,19.622,0,27.091C228.136,221.448,240.289,221.448,247.758,213.979z" fill="#ea9434" data-original="#ea9434"/>
</g>
<g xmlns="http://www.w3.org/2000/svg">
	<path style="" d="M439.997,273.983l-16.74-8.857c-19.108-10.109-42.304,2.753-43.848,24.316l-2.836,39.601" fill="#e8a87c" data-original="#e8a87c"/>
	<path style="" d="M477.323,314.607L361.036,428.135c-11.682,11.41-27.094,18.233-43.405,19.205l-163.798,9.822   c-0.073,0.01-0.146,0.01-0.219,0.021c-9.707,0.648-18.432,6.186-23.615,14.42l-3.365,5.35c-3.814-2.226-7.555-4.556-11.233-6.98   c-33.708-22.194-61.858-52.14-81.91-87.301l22.173-29.508l1.494,1.536l30.448-44.032c15.203-22.016,39.623-36.342,66.351-37.616   c1.087-0.042,2.173-0.084,3.25-0.094l147.31-1.776c5.402-0.052,10.376,1.682,14.378,4.629c0.951,0.7,1.86,1.494,2.696,2.33   c4.483,4.483,7.178,10.731,6.949,17.586c-0.408,12.361-10.23,22.34-22.58,22.925l-92.118,4.504   c-5.705,0.272-10.773,2.696-14.493,6.416c-4.598,4.598-7.147,11.191-6.301,18.202c0.115,0.94,0.293,1.87,0.512,2.79h0.01   c2.508,9.979,11.724,17.042,22.277,16.593l105.848-4.462c9.404-0.408,18.401-3.981,25.506-10.146l91.732-79.632   c10.564-9.153,26.07-9.174,36.634-0.428c0.69,0.554,1.358,1.16,1.996,1.808l0.146,0.146   C488.723,285.622,488.545,303.625,477.323,314.607z" fill="#e8a87c" data-original="#e8a87c"/>
</g>
<path xmlns="http://www.w3.org/2000/svg" style="" d="M468.556,301.933L352.27,415.471c-11.682,11.41-27.105,18.233-43.415,19.205l-163.788,9.822h-0.084  c-8.443,0.261-16.311,4.389-20.814,11.546l-3.082,4.901l-5.684,9.028c-33.708-22.194-61.858-52.14-81.91-87.301l9.561-12.716  l12.612-16.792l31.943-42.496c15.203-22.016,39.623-36.342,66.351-37.616c1.087-0.042,2.173-0.084,3.25-0.094l147.31-1.776  c5.402-0.052,10.376,1.682,14.378,4.629c0.637,2.299,0.961,4.723,0.878,7.252c-0.408,12.351-10.23,22.329-22.58,22.925  l-92.118,4.504c-5.705,0.272-10.773,2.685-14.503,6.416c-4.598,4.598-7.137,11.191-6.29,18.202  c0.773,6.457,4.284,11.964,9.279,15.454h0.01c2.508,9.979,11.724,17.042,22.277,16.593l105.848-4.462  c9.404-0.408,18.401-3.981,25.506-10.146l91.732-79.632c10.564-9.153,26.07-9.174,36.634-0.428  C478.984,282.498,476.633,294.033,468.556,301.933z" fill="#fec495" data-original="#fec495"/>
<path xmlns="http://www.w3.org/2000/svg" style="" d="M499.176,154.234c11.102-11.102,11.102-29.1,0-40.202l-28.211-28.211L446.78,61.635  c-11.102-11.102-29.1-11.102-40.202,0l-83.262,83.262c-11.102,11.102-11.102,29.1,0,40.202l52.396,52.396  c11.102,11.102,29.1,11.102,40.202,0L499.176,154.234z" fill="#1ba36c" data-original="#1ba36c"/>
<path xmlns="http://www.w3.org/2000/svg" style="" d="M298.827,239.07c-0.179,0-0.354-0.001-0.533-0.002c-40.781-0.255-70.325-30.068-71.562-31.338  c-4.028-4.132-3.946-10.747,0.185-14.776c4.126-4.024,10.73-3.947,14.761,0.169c0.412,0.414,25.05,24.932,56.912,25.048  c0.074,0,0.151,0,0.226,0c18.682,0,36.604-8.451,53.277-25.126c4.081-4.08,10.696-4.08,14.778,0c4.08,4.08,4.08,10.697,0,14.778  C346.136,228.557,323.243,239.07,298.827,239.07z" fill="#e0e2e2" data-original="#e0e2e2"/>
<polygon xmlns="http://www.w3.org/2000/svg" style="" points="461.712,178.113 445.275,179.806 444.547,172.727 407,210.273 352.02,154.432   389.136,117.316 382.056,116.588 383.749,100.15 454.434,107.426 456.803,130.428 465.673,121.559 471.089,126.976 477.51,133.396   480.694,136.58 459.607,157.667 " fill="#128c56" data-original="#128c56"/>
<g xmlns="http://www.w3.org/2000/svg">
</g>
<g xmlns="http://www.w3.org/2000/svg">
</g>
<g xmlns="http://www.w3.org/2000/svg">
</g>
<g xmlns="http://www.w3.org/2000/svg">
</g>
<g xmlns="http://www.w3.org/2000/svg">
</g>
<g xmlns="http://www.w3.org/2000/svg">
</g>
<g xmlns="http://www.w3.org/2000/svg">
</g>
<g xmlns="http://www.w3.org/2000/svg">
</g>
<g xmlns="http://www.w3.org/2000/svg">
</g>
<g xmlns="http://www.w3.org/2000/svg">
</g>
<g xmlns="http://www.w3.org/2000/svg">
</g>
<g xmlns="http://www.w3.org/2000/svg">
</g>
<g xmlns="http://www.w3.org/2000/svg">
</g>
<g xmlns="http://www.w3.org/2000/svg">
</g>
<g xmlns="http://www.w3.org/2000/svg">
</g>
</g></svg>
