<?xml version="1.0"?>
<svg xmlns="http://www.w3.org/2000/svg" xmlns:xlink="http://www.w3.org/1999/xlink" xmlns:svgjs="http://svgjs.com/svgjs" version="1.1" width="512" height="512" x="0" y="0" viewBox="0 0 512 512" style="enable-background:new 0 0 512 512" xml:space="preserve" class=""><g><g xmlns="http://www.w3.org/2000/svg"><path d="m256 21.996c-135.311 0-245.002 109.691-245.002 245.002 0 71.317 30.481 135.507 79.114 180.28l120.165 60.444c14.815 2.797 30.095 4.278 45.723 4.278 135.311 0 245.002-109.691 245.002-245.002s-109.691-245.002-245.002-245.002z" fill="#ff6348" data-original="#e80054" style=""/><path d="m347.724 267.892-1.647-.951c-9.528-5.501-21.825-2.206-27.326 7.322l6.73-11.656c5.346-9.259 3.299-21.282-5.257-27.694-10.198-7.643-24.578-4.45-30.761 6.259l2.113-3.66c5.346-9.259 3.299-21.281-5.257-27.693-10.198-7.643-24.577-4.451-30.761 6.259l33.317-57.707c5.346-9.259 3.298-21.282-5.257-27.694-10.198-7.642-24.578-4.45-30.761 6.259l-55.609 96.316c-1.095 1.897-3.542 2.511-5.397 1.348-4.79-3.004-12.227-7.525-22.286-4.151-22.029 7.391-37.363 27.427-38.737 50.628-.989 21.337-1.959-3.313 8.239 71.63.739 4.968-.227 10.04-2.739 14.39l-46.217 80.18c32.983 30.365 74.315 51.788 120.165 60.444l46.569-80.787c7.335-12.704 31.099-15.496 51.056-50.064 4.422-7.658 35.655-61.756 47.144-81.654 5.502-9.526 2.207-21.823-7.321-27.324z" fill="#f9ba8f" data-original="#f9ba8f" style=""/><path d="m277.234 126.814 8.459 4.884c4.859 2.805 6.538 9.075 3.734 13.932l-9.173 15.889c-2.805 4.859-9.075 6.539-13.933 3.734l-8.459-4.884c-4.858-2.805-6.538-9.074-3.733-13.933l9.173-15.889c2.804-4.858 9.073-6.538 13.932-3.733z" fill="#f9dfcd" data-original="#f9dfcd" style=""/><path d="m166.962 265.541c4.824 2.785 10.992 1.132 13.777-3.692l16.51-28.596c-1.095 1.897-3.542 2.511-5.397 1.348-3.657-2.294-8.862-5.46-15.593-5.333l-12.988 22.496c-2.786 4.823-1.133 10.992 3.691 13.777z" fill="#fd995b" data-original="#fd995b" style=""/><g><path d="m444.702 156.258c-2.591-3.231-2.071-7.952 1.161-10.542l7.858-6.299c3.232-2.591 7.952-2.071 10.543 1.161 2.591 3.231 2.071 7.952-1.161 10.542l-7.858 6.299c-3.232 2.592-7.953 2.071-10.543-1.161z" fill="#ffdd40" data-original="#ffdd40" style="" class=""/></g><g><path d="m444.833 220.096-6.298-7.858c-2.591-3.232-2.071-7.952 1.162-10.543 3.232-2.591 7.952-2.071 10.543 1.162l6.298 7.858c2.591 3.232 2.071 7.952-1.162 10.543-3.234 2.59-7.953 2.07-10.543-1.162z" fill="#ffdd40" data-original="#ffdd40" style="" class=""/></g><g><path d="m468.253 189.393-10.01-1.103c-4.117-.454-7.087-4.159-6.634-8.276.454-4.116 4.155-7.078 8.276-6.634l10.01 1.103c4.117.454 7.087 4.159 6.634 8.276-.45 4.087-4.12 7.084-8.276 6.634z" fill="#ffdd40" data-original="#ffdd40" style="" class=""/></g><path d="m395.621 38.716-7.253-12.563c-14.439-25.01-46.419-33.579-71.429-19.139-25.01 14.439-33.579 46.419-19.139 71.429l7.253 12.563c12.84 22.239 17.777 48.168 14.01 73.57 8.888-5.131 124.148-71.677 133.267-76.942-23.883-9.438-43.87-26.679-56.709-48.918z" fill="#ffdd40" data-original="#ffdd40" style="" class=""/><path d="m452.329 87.633c-9.703-3.834-18.747-8.976-26.945-15.198l-42.826 26.028c-9.695 5.893-22.344 2.323-27.551-7.757-4.598-8.901-10.879-20.676-18.818-34.706-12.094-21.372-4.046-43.16 3.127-55.863-7.647.547-15.292 2.787-22.377 6.878-25.01 14.439-33.579 46.419-19.139 71.429l7.253 12.563c12.84 22.239 17.777 48.168 14.01 73.57 8.886-5.133 124.147-71.679 133.266-76.944z" fill="#ffb332" data-original="#ffb332" style="" class=""/><ellipse cx="395.823" cy="172.978" fill="#ffdd40" rx="24.266" ry="24.266" transform="matrix(.214 -.977 .977 .214 142.269 522.703)" data-original="#ffdd40" style="" class=""/><g><path d="m464.889 109.388-133.267 76.942c-6.621 3.822-15.086 1.554-18.909-5.067s-1.554-15.086 5.066-18.909l133.267-76.942c6.621-3.822 15.086-1.554 18.909 5.067 3.824 6.621 1.555 15.087-5.066 18.909z" fill="#fcf2c8" data-original="#fcf2c8" style="" class=""/></g><path d="m379.615 141.446c-2.555-4.425-2.887-9.513-1.371-14l-60.465 34.909c-6.621 3.822-8.889 12.288-5.066 18.909 3.822 6.621 12.288 8.889 18.909 5.067l62.973-36.358c-5.962.063-11.786-2.995-14.98-8.527z" fill="#ffe98d" data-original="#ffe98d" style="" class=""/><g><path d="m10.998 266.998c0 37.038 8.238 72.144 22.953 103.616 13.752-3.022 26.412-9.19 35.989-19.523 4.371-4.716 8-10.263 9.672-16.473 2.621-9.74.25-20.018-1.313-29.983-2.819-17.966-2.927-36.604 2.078-54.088s15.447-33.766 30.655-43.739c17.493-11.47 39.393-13.745 58.399-22.482 25.757-11.84 45.419-36.159 51.604-63.824 6.955-31.111-2.147-65.152.976-96.15-119.221 16.551-211.013 118.87-211.013 242.646z" fill="#ff7b64" data-original="#ff4155" style="" class=""/></g><g><path d="m500.523 282.131c-6.977-7.685-15.543-13.853-25.238-17.651-24.207-9.483-54.394-2.667-70.787 17.512-8.389 10.326-12.931 23.143-18.184 35.366-17.487 40.691-44.075 76.814-72.546 110.74-5.527 6.586-11.24 13.28-14.289 21.32-5.948 15.683.404 35.102 14.47 44.239 5.284 3.432 11.204 5.388 17.389 6.522 93.856-30.302 162.945-115.679 169.185-218.048z" fill="#ff7b64" data-original="#ff4155" style="" class=""/></g><path d="m256.846 426.936c4.302-7.452 14.259-11.501 25.783-20.545-113.388 26.885-143.562-53.684-143.562-53.684.739 4.968-.227 10.04-2.739 14.39l-46.217 80.18c32.983 30.365 74.315 51.788 120.165 60.444z" fill="#fd995b" data-original="#fd995b" style=""/><ellipse cx="403.095" cy="168.158" fill="#ffe98d" rx="10.342" ry="10.342" transform="matrix(.264 -.965 .965 .264 134.486 512.559)" data-original="#ffe98d" style="" class=""/></g></g></svg>
