<svg height="512pt" viewBox="0 -5 512.00115 512" width="512pt" xmlns="http://www.w3.org/2000/svg"><path d="m500.992188 256.160156c0 135.390625-109.757813 245.148438-245.148438 245.148438-135.394531 0-245.152344-109.757813-245.152344-245.148438 0-135.394531 109.757813-245.152344 245.152344-245.152344 135.390625 0 245.148438 109.757813 245.148438 245.152344zm0 0" fill="#fdd33a"/><path d="m134.074219 390.71875h20.699219v29.6875h-20.699219zm0 0" fill="#1b0d59"/><path d="m356.914062 390.71875h20.695313v29.6875h-20.695313zm0 0" fill="#1b0d59"/><path d="m178.203125 451.019531c0-18.65625-15.125-33.78125-33.78125-33.78125-18.652344 0-33.777344 15.125-33.777344 33.78125 0 .929688.046875 1.84375.121094 2.757813 14.910156 10.960937 31.101563 20.28125 48.3125 27.683594 11.316406-5.460938 19.125-17.039063 19.125-30.441407zm0 0" fill="#6843af"/><path d="m449.113281 337.777344-324.359375 1.171875c-7.078125.027343-13.222656-4.882813-14.757812-11.792969l-49.480469-222.304688c-2.085937-9.390624 5.035156-18.304687 14.652344-18.339843l421.707031-1.523438c9.617188-.035156 16.804688 8.828125 14.785156 18.230469l-47.871094 222.660156c-1.488281 6.921875-7.597656 11.871094-14.675781 11.898438zm0 0" fill="#ef3a50"/><path d="m129.523438 105.394531c-2.089844-9.667969 5.03125-18.847656 14.648437-18.882812l355.316406-1.285157c-.847656-.144531-1.714843-.242187-2.613281-.238281l-421.707031 1.523438c-9.617188.035156-16.738281 8.949219-14.652344 18.339843l49.480469 222.304688c1.535156 6.910156 7.679687 11.820312 14.757812 11.792969l55.96875-.203125c-.765625-1.351563-1.355468-2.835938-1.699218-4.429688zm0 0" fill="#ce2844"/><path d="m476.496094 337.320312c-7.308594-7.277343-17-11.285156-27.3125-11.285156-.046875 0-.09375 0-.140625.003906l-35.554688.125-286.425781 1.035157c-.015625 0-.035156 0-.050781 0-6.910157 0-13.011719-4.882813-14.515625-11.632813l-60.105469-269.378906c-3.824219-17.136719-19.3125-29.542969-36.863281-29.542969-.042969 0-.089844 0-.132813 0h-3.695312c-6.484375.023438-11.7226565 5.296875-11.699219 11.78125.0234375 6.46875 5.273438 11.699219 11.738281 11.699219h.042969 3.695312.050782c6.640625 0 12.5 4.691406 13.949218 11.175781l60.101563 269.378907c3.882813 17.40625 19.613281 30 37.433594 30h.136719l276.070312-.996094 45.90625-.167969h.058594c4.050781 0 7.863281 1.574219 10.738281 4.4375 2.886719 2.875 4.472656 6.703125 4.472656 10.777344 0 8.390625-6.824219 15.214843-15.214843 15.214843h-334.878907c-6.484375 0-11.742187 5.257813-11.742187 11.742188 0 6.480469 5.257812 11.738281 11.742187 11.738281h334.878907c.921874 0 1.832031-.042969 2.734374-.105469 12.902344-17.160156 23.597657-36.066406 31.679688-56.304687-1.824219-3.53125-4.199219-6.804687-7.097656-9.695313zm0 0" fill="#50309e"/><path d="m367.261719 417.238281c-18.65625 0-33.78125 15.125-33.78125 33.78125 0 13.402344 7.808593 24.984375 19.125 30.441407 17.210937-7.402344 33.402343-16.71875 48.3125-27.683594.074219-.910156.121093-1.828125.121093-2.757813 0-18.65625-15.121093-33.78125-33.777343-33.78125zm0 0" fill="#6843af"/><path d="m154.773438 418.859375c-.789063-.25-1.585938-.472656-2.398438-.667969-.074219-.019531-.148438-.035156-.226562-.054687-.785157-.183594-1.585938-.34375-2.394532-.472657-.011718-.003906-.023437-.007812-.035156-.007812-.785156-.125-1.582031-.214844-2.382812-.285156-.167969-.011719-.332032-.023438-.5-.035156-.796876-.058594-1.601563-.097657-2.414063-.097657-5.828125 0-11.3125 1.476563-16.097656 4.078125-.960938.519532-1.886719 1.082032-2.785157 1.691406-.449218.304688-.890624.617188-1.324218.941407-.867188.648437-1.703125 1.335937-2.503906 2.0625-.398438.363281-.789063.738281-1.171876 1.121093-1.527343 1.527344-2.910156 3.203126-4.125 5-.605468.898438-1.171874 1.828126-1.691406 2.78125-2.601562 4.789063-4.078125 10.273438-4.078125 16.101563 0 .484375.019531.960937.039063 1.4375.019531.441406.046875.882813.082031 1.320313 8.65625 6.363281 17.753906 12.152343 27.21875 17.355468-4.171875-5.617187-6.640625-12.574218-6.640625-20.109375-.003906-15.046875 9.835938-27.789062 23.429688-32.160156zm0 0" fill="#50309e"/><path d="m354.179688 451.019531c0-15.046875 9.835937-27.789062 23.429687-32.160156-.785156-.25-1.585937-.472656-2.398437-.667969-.074219-.019531-.148438-.035156-.222657-.054687-.789062-.183594-1.585937-.34375-2.394531-.472657-.015625-.003906-.027344-.007812-.039062-.007812-.785157-.125-1.582032-.214844-2.382813-.285156-.164063-.011719-.332031-.023438-.496094-.035156-.800781-.058594-1.601562-.097657-2.414062-.097657-5.53125 0-10.746094 1.339844-15.355469 3.695313-.425781.21875-.847656.445312-1.261719.679687-.589843.332031-1.167969.683594-1.734375 1.050781-.632812.410157-1.253906.835938-1.859375 1.285157-.664062.5-1.304687 1.027343-1.933593 1.574219-1.003907.871093-1.964844 1.796874-2.859376 2.785156-.726562.796875-1.417968 1.632812-2.066406 2.5-1.296875 1.734375-2.429687 3.597656-3.378906 5.566406-2.132812 4.429688-3.332031 9.398438-3.332031 14.644531 0 .746094.035156 1.484375.082031 2.21875.011719.199219.03125.394531.046875.59375.050781.621094.117187 1.238281.199219 1.851563.015625.117187.027344.234375.046875.351562.105469.710938.238281 1.410156.386719 2.105469.039062.179687.082031.351563.121093.527344.128907.5625.273438 1.121093.433594 1.671875.042969.160156.085937.320312.132813.476562.203124.671875.425781 1.335938.667968 1.988282.050782.132812.105469.265624.15625.394531.210938.542969.433594 1.078125.671875 1.609375.074219.164062.148438.332031.226563.496094.292968.632812.601562 1.253906.9375 1.867187.03125.054687.0625.109375.09375.164063.308594.558593.636718 1.105468.976562 1.644531.097656.15625.199219.316406.300782.46875.34375.527343.699218 1.046875 1.070312 1.554687.042969.054688.082031.113282.121094.167969.414062.554687.847656 1.09375 1.292968 1.621094.117188.136719.234376.269531.351563.402343.375.429688.761719.855469 1.160156 1.269532.097657.097656.1875.199218.285157.296875.480468.488281.980468.960937 1.492187 1.421875.117187.101562.234375.199218.347656.300781.429688.371094.867188.734375 1.3125 1.082031.132813.105469.261719.214844.398438.316406.546875.417969 1.109375.824219 1.683593 1.210938.082032.054688.167969.105469.253907.160156.503906.332032 1.019531.652344 1.542969.957032.15625.089843.316406.183593.472656.269531.609375.34375 1.226562.671875 1.855468.976562h.003907c4.171875-1.792969 8.289062-3.707031 12.339843-5.726562-6.621093-6.160157-10.765624-14.949219-10.765624-24.710938zm0 0" fill="#50309e"/><path d="m163.476562 451.019531c0 10.519531-8.53125 19.050781-19.054687 19.050781-10.519531 0-19.050781-8.53125-19.050781-19.050781 0-10.523437 8.53125-19.054687 19.050781-19.054687 10.523437 0 19.054687 8.53125 19.054687 19.054687zm0 0" fill="#1b0d59"/><path d="m386.3125 451.019531c0 10.519531-8.527344 19.050781-19.050781 19.050781-10.523438 0-19.054688-8.53125-19.054688-19.050781 0-10.523437 8.53125-19.054687 19.054688-19.054687 10.523437 0 19.050781 8.53125 19.050781 19.054687zm0 0" fill="#1b0d59"/><g fill="#ce2844"><path d="m404.714844 165.636719h-237.277344c-4.976562 0-9.007812 4.03125-9.007812 9.003906s4.03125 9.003906 9.007812 9.003906h237.277344c4.972656 0 9.003906-4.03125 9.003906-9.003906s-4.03125-9.003906-9.003906-9.003906zm0 0"/><path d="m391.011719 221.105469h-209.871094c-4.976563 0-9.007813 4.03125-9.007813 9.003906s4.03125 9.003906 9.007813 9.003906h209.871094c4.972656 0 9.003906-4.03125 9.003906-9.003906s-4.03125-9.003906-9.003906-9.003906zm0 0"/><path d="m377.308594 276.574219h-182.464844c-4.972656 0-9.007812 4.03125-9.007812 9.003906s4.035156 9.003906 9.007812 9.003906h182.464844c4.972656 0 9.007812-4.03125 9.007812-9.003906s-4.035156-9.003906-9.007812-9.003906zm0 0"/><path d="m496.875 84.988281-145.671875.527344c2.117187 8.902344 5.765625 17.210937 10.636719 24.652344h-208.105469c-4.972656 0-9.007813 4.03125-9.007813 9.003906s4.035157 9.003906 9.007813 9.003906h224.351563c13.46875 10.941407 30.632812 17.5 49.335937 17.5 36.675781 0 67.457031-25.195312 76.003906-59.21875-1.96875-.941406-4.1875-1.476562-6.550781-1.46875zm0 0"/></g><path d="m494.730469 67.304688c0 37.171874-30.136719 67.308593-67.304688 67.308593-37.171875 0-67.308593-30.136719-67.308593-67.308593 0-37.171876 30.136718-67.304688 67.308593-67.304688 37.167969 0 67.304688 30.132812 67.304688 67.304688zm0 0" fill="#6843af"/><path d="m390.660156 67.304688c0-31.914063 22.222656-58.625 52.035156-65.542969-4.910156-1.140625-10.015624-1.761719-15.269531-1.761719-37.175781 0-67.308593 30.132812-67.308593 67.304688 0 37.171874 30.132812 67.308593 67.308593 67.308593 5.253907 0 10.359375-.625 15.269531-1.761719-29.8125-6.917968-52.035156-33.628906-52.035156-65.546874zm0 0" fill="#50309e"/><path d="m458.105469 59.734375h-24.238281v-24.238281c0-4.183594-3.390626-7.578125-7.574219-7.578125-4.183594 0-7.574219 3.394531-7.574219 7.578125v24.238281h-24.238281c-4.183594 0-7.574219 3.390625-7.574219 7.574219s3.390625 7.574218 7.574219 7.574218h24.238281v24.238282c0 4.183594 3.390625 7.574218 7.574219 7.574218 4.183593 0 7.574219-3.390624 7.574219-7.574218v-24.242188h24.238281c4.183593 0 7.574219-3.390625 7.574219-7.574218 0-4.183594-3.390626-7.570313-7.574219-7.570313zm0 0" fill="#fff"/></svg>